<svg xmlns="http://www.w3.org/2000/svg" height="512pt" version="1.1" viewBox="0 -120 512 512" width="512pt">
<g id="surface1">
<path d="M 346.839844 0 C 337.71875 0 330.324219 7.394531 330.324219 16.515625 L 330.324219 41.289062 L 363.355469 41.289062 L 363.355469 16.515625 C 363.355469 7.394531 355.960938 0 346.839844 0 Z M 346.839844 0 " style=" stroke:none;fill-rule:nonzero;fill:rgb(90.196078%,39.215686%,43.137255%);fill-opacity:1;" />
<path d="M 346.839844 0 L 346.839844 41.289062 L 330.324219 41.289062 L 330.324219 16.515625 C 330.324219 7.394531 337.71875 0 346.839844 0 Z M 346.839844 0 " style=" stroke:none;fill-rule:nonzero;fill:rgb(86.27451%,27.45098%,33.333333%);fill-opacity:1;" />
<path d="M 503.742188 239.484375 L 503.742188 165.035156 C 503.742188 155.246094 497.480469 146.558594 488.195312 143.464844 L 429.421875 123.871094 L 378.914062 44.507812 C 374.367188 37.359375 366.484375 33.03125 358.015625 33.03125 L 297.289062 33.03125 L 297.289062 239.484375 Z M 503.742188 239.484375 " style=" stroke:none;fill-rule:nonzero;fill:rgb(92.941176%,92.156863%,92.941176%);fill-opacity:1;" />
<path d="M 363.355469 165.160156 L 503.742188 165.160156 L 503.742188 165.035156 C 503.742188 155.246094 497.480469 146.558594 488.195312 143.460938 L 429.421875 123.871094 L 424.164062 115.613281 L 338.582031 115.613281 L 338.582031 140.386719 C 338.582031 154.070312 349.671875 165.160156 363.355469 165.160156 Z M 363.355469 165.160156 " style=" stroke:none;fill-rule:nonzero;fill:rgb(96.470588%,96.078431%,96.470588%);fill-opacity:1;" />
<path d="M 403.144531 82.582031 L 392.632812 66.066406 L 313.808594 66.066406 L 313.808594 33.03125 L 297.289062 33.03125 L 297.289062 239.484375 L 313.804688 239.484375 L 313.804688 99.097656 C 313.804688 89.976562 321.199219 82.582031 330.320312 82.582031 Z M 403.144531 82.582031 " style=" stroke:none;fill-rule:nonzero;fill:rgb(85.882353%,85.098039%,86.27451%);fill-opacity:1;" />
<path d="M 297.289062 239.484375 L 8.257812 239.484375 C 3.695312 239.484375 0 235.785156 0 231.226562 L 0 24.773438 C 0 20.214844 3.695312 16.515625 8.257812 16.515625 L 289.03125 16.515625 C 293.59375 16.515625 297.289062 20.214844 297.289062 24.773438 Z M 297.289062 239.484375 " style=" stroke:none;fill-rule:nonzero;fill:rgb(92.941176%,92.156863%,92.941176%);fill-opacity:1;" />
<path d="M 256 66.0625 L 206.453125 66.0625 C 201.890625 66.0625 198.195312 69.761719 198.195312 74.320312 L 198.195312 239.484375 L 264.257812 239.484375 L 264.257812 74.324219 C 264.257812 69.761719 260.5625 66.0625 256 66.0625 Z M 256 66.0625 " style=" stroke:none;fill-rule:nonzero;fill:rgb(85.882353%,85.098039%,86.27451%);fill-opacity:1;" />
<path d="M 145.515625 189.933594 C 141.898438 189.933594 138.304688 188.847656 135.511719 186.550781 C 125.589844 178.386719 112.960938 173.417969 99.097656 173.417969 C 85.234375 173.417969 72.605469 178.386719 62.679688 186.550781 C 59.886719 188.847656 56.292969 189.933594 52.679688 189.933594 L 0 189.933594 L 0 231.226562 C 0 235.785156 3.695312 239.484375 8.257812 239.484375 L 437.675781 239.484375 L 437.675781 189.933594 Z M 145.515625 189.933594 " style=" stroke:none;fill-rule:nonzero;fill:rgb(90.196078%,39.215686%,43.137255%);fill-opacity:1;" />
<path d="M 503.742188 206.453125 L 462.453125 206.453125 L 462.453125 239.484375 L 503.742188 239.484375 C 508.304688 239.484375 512 235.785156 512 231.226562 L 512 214.710938 C 512 210.148438 508.304688 206.453125 503.742188 206.453125 Z M 503.742188 206.453125 " style=" stroke:none;fill-rule:nonzero;fill:rgb(78.823529%,77.647059%,79.215686%);fill-opacity:1;" />
<path d="M 136.257812 86.710938 L 115.613281 86.710938 L 115.613281 66.066406 C 115.613281 61.503906 111.914062 57.808594 107.355469 57.808594 L 90.839844 57.808594 C 86.277344 57.808594 82.582031 61.503906 82.582031 66.066406 L 82.582031 86.710938 L 61.933594 86.710938 C 57.375 86.710938 53.675781 90.40625 53.675781 94.96875 L 53.675781 111.484375 C 53.675781 116.046875 57.375 119.742188 61.933594 119.742188 L 82.578125 119.742188 L 82.578125 140.386719 C 82.578125 144.949219 86.277344 148.644531 90.839844 148.644531 L 107.355469 148.644531 C 111.914062 148.644531 115.613281 144.949219 115.613281 140.386719 L 115.613281 119.742188 L 136.257812 119.742188 C 140.816406 119.742188 144.515625 116.046875 144.515625 111.484375 L 144.515625 94.96875 C 144.515625 90.40625 140.820312 86.710938 136.257812 86.710938 Z M 136.257812 86.710938 " style=" stroke:none;fill-rule:nonzero;fill:rgb(90.196078%,39.215686%,43.137255%);fill-opacity:1;" />
<path d="M 140.386719 231.226562 C 140.386719 254.03125 121.902344 272.515625 99.097656 272.515625 C 76.292969 272.515625 57.808594 254.03125 57.808594 231.226562 C 57.808594 208.421875 76.292969 189.9375 99.097656 189.9375 C 121.902344 189.9375 140.386719 208.421875 140.386719 231.226562 Z M 140.386719 231.226562 " style=" stroke:none;fill-rule:nonzero;fill:rgb(43.529412%,39.607843%,44.313725%);fill-opacity:1;" />
<path d="M 119.742188 231.226562 C 119.742188 242.628906 110.5 251.871094 99.097656 251.871094 C 87.695312 251.871094 78.453125 242.628906 78.453125 231.226562 C 78.453125 219.824219 87.695312 210.582031 99.097656 210.582031 C 110.5 210.582031 119.742188 219.824219 119.742188 231.226562 Z M 119.742188 231.226562 " style=" stroke:none;fill-rule:nonzero;fill:rgb(78.823529%,77.647059%,79.215686%);fill-opacity:1;" />
<path d="M 478.96875 231.226562 C 478.96875 254.03125 460.480469 272.515625 437.675781 272.515625 C 414.875 272.515625 396.386719 254.03125 396.386719 231.226562 C 396.386719 208.421875 414.875 189.9375 437.675781 189.9375 C 460.480469 189.9375 478.96875 208.421875 478.96875 231.226562 Z M 478.96875 231.226562 " style=" stroke:none;fill-rule:nonzero;fill:rgb(43.529412%,39.607843%,44.313725%);fill-opacity:1;" />
<path d="M 458.320312 231.226562 C 458.320312 242.628906 449.078125 251.871094 437.675781 251.871094 C 426.273438 251.871094 417.03125 242.628906 417.03125 231.226562 C 417.03125 219.824219 426.273438 210.582031 437.675781 210.582031 C 449.078125 210.582031 458.320312 219.824219 458.320312 231.226562 Z M 458.320312 231.226562 " style=" stroke:none;fill-rule:nonzero;fill:rgb(78.823529%,77.647059%,79.215686%);fill-opacity:1;" />
<path d="M 297.289062 189.933594 L 313.804688 189.933594 L 313.804688 239.484375 L 297.289062 239.484375 Z M 297.289062 189.933594 " style=" stroke:none;fill-rule:nonzero;fill:rgb(86.27451%,27.45098%,33.333333%);fill-opacity:1;" />
<path d="M 198.195312 189.933594 L 264.257812 189.933594 L 264.257812 239.484375 L 198.195312 239.484375 Z M 198.195312 189.933594 " style=" stroke:none;fill-rule:nonzero;fill:rgb(86.27451%,27.45098%,33.333333%);fill-opacity:1;" />
<path d="M 239.484375 82.582031 L 222.96875 82.582031 C 218.40625 82.582031 214.710938 86.277344 214.710938 90.839844 L 214.710938 115.613281 C 214.710938 120.175781 218.40625 123.871094 222.96875 123.871094 L 239.484375 123.871094 C 244.046875 123.871094 247.742188 120.175781 247.742188 115.613281 L 247.742188 90.839844 C 247.742188 86.277344 244.046875 82.582031 239.484375 82.582031 Z M 239.484375 82.582031 " style=" stroke:none;fill-rule:nonzero;fill:rgb(64.705882%,80.392157%,100%);fill-opacity:1;" />
<path d="M 247.742188 99.097656 L 214.710938 99.097656 L 214.710938 90.839844 C 214.710938 86.277344 218.40625 82.582031 222.96875 82.582031 L 239.484375 82.582031 C 244.046875 82.582031 247.742188 86.277344 247.742188 90.839844 Z M 247.742188 99.097656 " style=" stroke:none;fill-rule:nonzero;fill:rgb(54.901961%,70.588235%,92.156863%);fill-opacity:1;" />
<path d="M 503.742188 189.933594 L 495.484375 189.933594 C 490.921875 189.933594 487.226562 186.238281 487.226562 181.675781 L 487.226562 173.417969 C 487.226562 168.859375 490.921875 165.160156 495.484375 165.160156 L 503.742188 165.160156 Z M 503.742188 189.933594 " style=" stroke:none;fill-rule:nonzero;fill:rgb(100%,66.666667%,37.254902%);fill-opacity:1;" />
<path d="M 346.839844 123.871094 L 429.421875 123.871094 L 392.632812 66.066406 L 338.582031 66.066406 C 334.019531 66.066406 330.324219 69.761719 330.324219 74.324219 L 330.324219 107.355469 C 330.324219 116.476562 337.71875 123.871094 346.839844 123.871094 Z M 346.839844 123.871094 " style=" stroke:none;fill-rule:nonzero;fill:rgb(76.862745%,87.058824%,100%);fill-opacity:1;" />
<path d="M 392.632812 66.0625 L 338.582031 66.0625 C 334.019531 66.0625 330.324219 69.761719 330.324219 74.320312 L 330.324219 82.578125 L 403.144531 82.578125 Z M 392.632812 66.0625 " style=" stroke:none;fill-rule:nonzero;fill:rgb(64.705882%,80.392157%,100%);fill-opacity:1;" />
<path d="M 289.03125 16.515625 L 8.257812 16.515625 C 3.695312 16.515625 0 20.214844 0 24.773438 L 0 33.03125 L 297.289062 33.03125 L 297.289062 24.773438 C 297.289062 20.214844 293.59375 16.515625 289.03125 16.515625 Z M 289.03125 16.515625 " style=" stroke:none;fill-rule:nonzero;fill:rgb(96.470588%,96.078431%,96.470588%);fill-opacity:1;" />
</g>
</svg>