<svg xmlns="http://www.w3.org/2000/svg" height="512pt" version="1.1" viewBox="0 -120 512 512" width="512pt">
<g id="surface1">
<path d="M 57.804688 24.773438 L 74.320312 24.773438 L 74.320312 74.320312 L 57.804688 74.320312 Z M 57.804688 24.773438 " style=" stroke:none;fill-rule:nonzero;fill:rgb(78.823529%,77.647059%,79.215686%);fill-opacity:1;" />
<path d="M 57.804688 24.773438 L 74.320312 24.773438 L 74.320312 49.546875 L 57.804688 49.546875 Z M 57.804688 24.773438 " style=" stroke:none;fill-rule:nonzero;fill:rgb(71.764706%,69.803922%,72.156863%);fill-opacity:1;" />
<path d="M 289.03125 24.773438 L 305.546875 24.773438 L 305.546875 74.320312 L 289.03125 74.320312 Z M 289.03125 24.773438 " style=" stroke:none;fill-rule:nonzero;fill:rgb(78.823529%,77.647059%,79.215686%);fill-opacity:1;" />
<path d="M 289.03125 24.773438 L 305.546875 24.773438 L 305.546875 49.546875 L 289.03125 49.546875 Z M 289.03125 24.773438 " style=" stroke:none;fill-rule:nonzero;fill:rgb(71.764706%,69.803922%,72.156863%);fill-opacity:1;" />
<path d="M 504.832031 161.574219 L 478.96875 148.644531 L 478.96875 82.582031 C 478.96875 73.460938 471.570312 66.066406 462.449219 66.066406 L 41.289062 66.066406 C 36.730469 66.066406 33.03125 69.761719 33.03125 74.324219 L 33.03125 239.484375 C 33.03125 244.046875 36.730469 247.742188 41.289062 247.742188 L 503.742188 247.742188 C 508.304688 247.742188 512 244.046875 512 239.484375 L 512 173.171875 C 512 168.261719 509.226562 163.773438 504.832031 161.574219 Z M 504.832031 161.574219 " style=" stroke:none;fill-rule:nonzero;fill:rgb(90.196078%,39.215686%,43.137255%);fill-opacity:1;" />
<path d="M 322.066406 148.644531 C 322.066406 162.328125 333.15625 173.417969 346.839844 173.417969 L 512 173.417969 L 512 173.171875 C 512 168.261719 509.226562 163.773438 504.832031 161.574219 L 478.972656 148.644531 Z M 322.066406 148.644531 " style=" stroke:none;fill-rule:nonzero;fill:rgb(100%,50.196078%,52.941176%);fill-opacity:1;" />
<path d="M 264.257812 231.226562 L 429.417969 231.226562 L 429.417969 247.742188 L 264.257812 247.742188 Z M 264.257812 231.226562 " style=" stroke:none;fill-rule:nonzero;fill:rgb(86.27451%,27.45098%,33.333333%);fill-opacity:1;" />
<path d="M 41.289062 247.742188 L 264.257812 247.742188 L 264.257812 107.355469 C 264.257812 102.792969 260.5625 99.097656 256 99.097656 L 33.03125 99.097656 L 33.03125 239.484375 C 33.03125 244.046875 36.730469 247.742188 41.289062 247.742188 Z M 41.289062 247.742188 " style=" stroke:none;fill-rule:nonzero;fill:rgb(85.882353%,85.098039%,86.27451%);fill-opacity:1;" />
<path d="M 429.417969 247.742188 L 503.742188 247.742188 C 508.304688 247.742188 512 244.046875 512 239.484375 L 512 214.710938 L 429.417969 214.710938 Z M 429.417969 247.742188 " style=" stroke:none;fill-rule:nonzero;fill:rgb(78.823529%,77.647059%,79.215686%);fill-opacity:1;" />
<path d="M 156.902344 231.226562 L 156.902344 99.097656 L 140.386719 99.097656 L 140.386719 214.710938 L 33.03125 214.710938 L 33.03125 239.484375 C 33.03125 244.042969 36.730469 247.742188 41.289062 247.742188 L 264.257812 247.742188 L 264.257812 231.226562 Z M 156.902344 231.226562 " style=" stroke:none;fill-rule:nonzero;fill:rgb(78.823529%,77.647059%,79.215686%);fill-opacity:1;" />
<path d="M 181.675781 239.484375 C 181.675781 257.726562 166.886719 272.515625 148.644531 272.515625 C 130.402344 272.515625 115.613281 257.726562 115.613281 239.484375 C 115.613281 221.242188 130.402344 206.453125 148.644531 206.453125 C 166.886719 206.453125 181.675781 221.242188 181.675781 239.484375 Z M 181.675781 239.484375 " style=" stroke:none;fill-rule:nonzero;fill:rgb(36.470588%,32.54902%,37.647059%);fill-opacity:1;" />
<path d="M 165.160156 239.484375 C 165.160156 248.605469 157.765625 256 148.644531 256 C 139.523438 256 132.128906 248.605469 132.128906 239.484375 C 132.128906 230.363281 139.523438 222.96875 148.644531 222.96875 C 157.765625 222.96875 165.160156 230.363281 165.160156 239.484375 Z M 165.160156 239.484375 " style=" stroke:none;fill-rule:nonzero;fill:rgb(78.823529%,77.647059%,79.215686%);fill-opacity:1;" />
<path d="M 33.03125 214.710938 C 33.03125 223.832031 25.636719 231.226562 16.515625 231.226562 C 7.394531 231.226562 0 223.832031 0 214.710938 C 0 205.589844 7.394531 198.195312 16.515625 198.195312 C 25.636719 198.195312 33.03125 205.589844 33.03125 214.710938 Z M 33.03125 214.710938 " style=" stroke:none;fill-rule:nonzero;fill:rgb(86.27451%,27.45098%,33.333333%);fill-opacity:1;" />
<path d="M 322.066406 0 L 41.289062 0 C 36.730469 0 33.03125 3.695312 33.03125 8.257812 L 33.03125 24.773438 C 33.03125 29.335938 36.730469 33.03125 41.289062 33.03125 L 322.0625 33.03125 C 326.625 33.03125 330.320312 29.335938 330.320312 24.773438 L 330.320312 8.257812 C 330.324219 3.695312 326.625 0 322.066406 0 Z M 322.066406 0 " style=" stroke:none;fill-rule:nonzero;fill:rgb(90.196078%,39.215686%,43.137255%);fill-opacity:1;" />
<path d="M 355.097656 99.097656 L 322.066406 99.097656 C 317.503906 99.097656 313.808594 102.792969 313.808594 107.355469 L 313.808594 140.386719 C 313.808594 144.949219 317.503906 148.644531 322.066406 148.644531 L 355.097656 148.644531 C 359.65625 148.644531 363.355469 144.949219 363.355469 140.386719 L 363.355469 107.355469 C 363.355469 102.792969 359.65625 99.097656 355.097656 99.097656 Z M 355.097656 99.097656 " style=" stroke:none;fill-rule:nonzero;fill:rgb(76.862745%,87.058824%,100%);fill-opacity:1;" />
<path d="M 388.128906 99.097656 C 383.566406 99.097656 379.871094 102.792969 379.871094 107.355469 L 379.871094 140.386719 C 379.871094 144.949219 383.566406 148.644531 388.128906 148.644531 C 392.691406 148.644531 396.386719 144.949219 396.386719 140.386719 L 396.386719 107.355469 C 396.386719 102.792969 392.691406 99.097656 388.128906 99.097656 Z M 388.128906 99.097656 " style=" stroke:none;fill-rule:nonzero;fill:rgb(76.862745%,87.058824%,100%);fill-opacity:1;" />
<path d="M 412.902344 107.355469 L 412.902344 140.386719 C 412.902344 144.949219 416.601562 148.644531 421.160156 148.644531 L 478.96875 148.644531 L 478.96875 99.097656 L 421.160156 99.097656 C 416.601562 99.097656 412.902344 102.792969 412.902344 107.355469 Z M 412.902344 107.355469 " style=" stroke:none;fill-rule:nonzero;fill:rgb(76.862745%,87.058824%,100%);fill-opacity:1;" />
<path d="M 429.417969 33.03125 C 420.296875 33.03125 412.902344 40.425781 412.902344 49.546875 L 412.902344 66.0625 L 445.933594 66.0625 L 445.933594 49.546875 C 445.933594 40.425781 438.539062 33.03125 429.417969 33.03125 Z M 429.417969 33.03125 " style=" stroke:none;fill-rule:nonzero;fill:rgb(64.705882%,80.392157%,100%);fill-opacity:1;" />
<path d="M 462.449219 239.484375 C 462.449219 257.726562 447.660156 272.515625 429.417969 272.515625 C 411.175781 272.515625 396.386719 257.726562 396.386719 239.484375 C 396.386719 221.242188 411.175781 206.453125 429.417969 206.453125 C 447.660156 206.453125 462.449219 221.242188 462.449219 239.484375 Z M 462.449219 239.484375 " style=" stroke:none;fill-rule:nonzero;fill:rgb(36.470588%,32.54902%,37.647059%);fill-opacity:1;" />
<path d="M 445.933594 239.484375 C 445.933594 248.605469 438.539062 256 429.417969 256 C 420.296875 256 412.902344 248.605469 412.902344 239.484375 C 412.902344 230.363281 420.296875 222.96875 429.417969 222.96875 C 438.539062 222.96875 445.933594 230.363281 445.933594 239.484375 Z M 445.933594 239.484375 " style=" stroke:none;fill-rule:nonzero;fill:rgb(78.823529%,77.647059%,79.215686%);fill-opacity:1;" />
<path d="M 322.066406 0 L 41.289062 0 C 36.730469 0 33.03125 3.695312 33.03125 8.257812 L 33.03125 16.515625 L 330.320312 16.515625 L 330.320312 8.257812 C 330.324219 3.695312 326.625 0 322.066406 0 Z M 322.066406 0 " style=" stroke:none;fill-rule:nonzero;fill:rgb(100%,50.196078%,52.941176%);fill-opacity:1;" />
<path d="M 412.902344 49.546875 L 412.902344 66.0625 L 429.417969 66.0625 L 429.417969 33.03125 C 420.296875 33.03125 412.902344 40.425781 412.902344 49.546875 Z M 412.902344 49.546875 " style=" stroke:none;fill-rule:nonzero;fill:rgb(54.901961%,70.588235%,92.156863%);fill-opacity:1;" />
<path d="M 512 198.191406 L 503.742188 198.191406 C 499.179688 198.191406 495.484375 194.496094 495.484375 189.933594 L 495.484375 181.675781 C 495.484375 177.117188 499.179688 173.417969 503.742188 173.417969 L 512 173.417969 Z M 512 198.191406 " style=" stroke:none;fill-rule:nonzero;fill:rgb(100%,66.666667%,37.254902%);fill-opacity:1;" />
<path d="M 355.097656 99.097656 L 322.066406 99.097656 C 317.503906 99.097656 313.808594 102.792969 313.808594 107.355469 L 313.808594 115.613281 L 363.355469 115.613281 L 363.355469 107.355469 C 363.355469 102.792969 359.65625 99.097656 355.097656 99.097656 Z M 355.097656 99.097656 " style=" stroke:none;fill-rule:nonzero;fill:rgb(64.705882%,80.392157%,100%);fill-opacity:1;" />
<path d="M 412.902344 107.355469 L 412.902344 115.613281 L 478.96875 115.613281 L 478.96875 99.097656 L 421.160156 99.097656 C 416.601562 99.097656 412.902344 102.792969 412.902344 107.355469 Z M 412.902344 107.355469 " style=" stroke:none;fill-rule:nonzero;fill:rgb(64.705882%,80.392157%,100%);fill-opacity:1;" />
<path d="M 379.871094 107.355469 L 379.871094 115.613281 L 396.386719 115.613281 L 396.386719 107.355469 C 396.386719 102.792969 392.691406 99.097656 388.128906 99.097656 C 383.566406 99.097656 379.871094 102.792969 379.871094 107.355469 Z M 379.871094 107.355469 " style=" stroke:none;fill-rule:nonzero;fill:rgb(64.705882%,80.392157%,100%);fill-opacity:1;" />
<path d="M 478.96875 82.582031 C 478.96875 73.460938 471.574219 66.066406 462.453125 66.066406 L 41.289062 66.066406 C 36.730469 66.066406 33.03125 69.761719 33.03125 74.324219 L 33.03125 82.582031 Z M 478.96875 82.582031 " style=" stroke:none;fill-rule:nonzero;fill:rgb(100%,50.196078%,52.941176%);fill-opacity:1;" />
</g>
</svg>