<svg xmlns="http://www.w3.org/2000/svg" height="512pt" version="1.1" viewBox="0 -142 512 512" width="512pt">
<g id="surface1">
<path d="M 260.0625 0 C 251.085938 0 243.808594 7.277344 243.808594 16.253906 L 243.808594 48.761719 L 276.316406 48.761719 L 276.316406 16.253906 C 276.316406 7.277344 269.039062 0 260.0625 0 Z M 260.0625 0 " style=" stroke:none;fill-rule:nonzero;fill:rgb(90.196078%,39.215686%,43.137255%);fill-opacity:1;" />
<path d="M 260.0625 0 L 260.0625 48.761719 L 243.808594 48.761719 L 243.808594 16.253906 C 243.808594 7.277344 251.085938 0 260.0625 0 Z M 260.0625 0 " style=" stroke:none;fill-rule:nonzero;fill:rgb(86.27451%,27.45098%,33.333333%);fill-opacity:1;" />
<path d="M 373.839844 97.523438 L 309.9375 40.71875 C 303.984375 35.429688 296.300781 32.507812 288.339844 32.507812 L 144.984375 32.507812 C 135.492188 32.507812 126.488281 36.644531 120.3125 43.847656 C 109.972656 55.910156 94.039062 74.496094 86.105469 83.753906 C 83.015625 87.355469 78.535156 89.398438 73.792969 89.398438 L 16.253906 89.398438 C 7.277344 89.398438 0 96.675781 0 105.652344 L 0 172.371094 C 0 180.65625 6.226562 187.613281 14.460938 188.527344 L 73.144531 195.046875 L 495.746094 195.046875 C 500.234375 195.046875 503.871094 191.410156 503.871094 186.921875 L 503.871094 121.90625 C 503.871094 121.90625 471.363281 105.652344 373.839844 97.523438 Z M 373.839844 97.523438 " style=" stroke:none;fill-rule:nonzero;fill:rgb(92.941176%,92.156863%,92.941176%);fill-opacity:1;" />
<path d="M 373.839844 97.523438 L 373.839844 146.285156 C 373.839844 155.261719 366.5625 162.539062 357.585938 162.539062 L 162.539062 162.539062 C 153.5625 162.539062 146.285156 155.261719 146.285156 146.285156 L 146.285156 111.605469 C 146.285156 102.324219 148.273438 93.152344 152.113281 84.703125 L 175.839844 32.507812 L 144.984375 32.507812 C 135.492188 32.507812 126.488281 36.644531 120.3125 43.847656 C 109.972656 55.910156 94.039062 74.496094 86.105469 83.753906 C 83.015625 87.355469 78.535156 89.398438 73.792969 89.398438 L 16.253906 89.398438 C 7.277344 89.398438 0 96.675781 0 105.652344 L 0 172.371094 C 0 180.65625 6.226562 187.613281 14.460938 188.527344 L 73.144531 195.046875 L 495.746094 195.046875 C 500.234375 195.046875 503.871094 191.410156 503.871094 186.921875 L 503.871094 121.90625 C 503.871094 121.90625 471.363281 105.652344 373.839844 97.523438 Z M 373.839844 97.523438 " style=" stroke:none;fill-rule:nonzero;fill:rgb(36.470588%,32.54902%,37.647059%);fill-opacity:1;" />
<path d="M 373.839844 97.523438 L 373.839844 113.777344 C 471.363281 121.90625 503.871094 138.160156 503.871094 138.160156 L 503.871094 121.90625 C 503.871094 121.90625 471.363281 105.652344 373.839844 97.523438 Z M 373.839844 97.523438 " style=" stroke:none;fill-rule:nonzero;fill:rgb(43.529412%,39.607843%,44.313725%);fill-opacity:1;" />
<path d="M 503.871094 105.652344 C 499.382812 105.652344 495.746094 109.289062 495.746094 113.777344 L 495.746094 146.285156 C 495.746094 150.773438 492.105469 154.414062 487.617188 154.414062 L 438.855469 154.414062 L 438.855469 195.046875 L 503.871094 195.046875 C 508.359375 195.046875 512 191.410156 512 186.921875 L 512 113.777344 C 512 109.289062 508.363281 105.652344 503.871094 105.652344 Z M 503.871094 105.652344 " style=" stroke:none;fill-rule:nonzero;fill:rgb(29.411765%,24.705882%,30.588235%);fill-opacity:1;" />
<path d="M 14.460938 188.527344 L 73.144531 195.046875 L 81.269531 195.046875 L 81.269531 154.414062 L 0 154.414062 L 0 172.371094 C 0 180.65625 6.226562 187.613281 14.460938 188.527344 Z M 14.460938 188.527344 " style=" stroke:none;fill-rule:nonzero;fill:rgb(29.411765%,24.705882%,30.588235%);fill-opacity:1;" />
<path d="M 120.3125 43.847656 C 109.972656 55.910156 94.039062 74.496094 86.105469 83.753906 C 83.015625 87.355469 78.539062 89.398438 73.792969 89.398438 L 16.253906 89.398438 C 7.277344 89.398438 0 96.675781 0 105.652344 L 146.605469 105.652344 C 147.269531 98.421875 149.097656 91.339844 152.113281 84.703125 L 175.839844 32.507812 L 144.984375 32.507812 C 135.492188 32.507812 126.488281 36.644531 120.3125 43.847656 Z M 120.3125 43.847656 " style=" stroke:none;fill-rule:nonzero;fill:rgb(43.529412%,39.607843%,44.313725%);fill-opacity:1;" />
<path d="M 172.585938 48.761719 C 166.429688 48.761719 160.800781 52.238281 158.046875 57.746094 L 147.675781 78.492188 C 146.761719 80.316406 146.285156 82.332031 146.285156 84.375 C 146.285156 91.636719 152.175781 97.523438 159.4375 97.523438 L 373.839844 97.523438 C 373.839844 97.523438 332.316406 60.613281 318.984375 48.761719 Z M 172.585938 48.761719 " style=" stroke:none;fill-rule:nonzero;fill:rgb(76.862745%,87.058824%,100%);fill-opacity:1;" />
<path d="M 158.046875 57.746094 L 154.414062 65.015625 L 337.269531 65.015625 C 329.863281 58.433594 323.085938 52.40625 318.984375 48.761719 L 172.585938 48.761719 C 166.429688 48.761719 160.800781 52.238281 158.046875 57.746094 Z M 158.046875 57.746094 " style=" stroke:none;fill-rule:nonzero;fill:rgb(64.705882%,80.392157%,100%);fill-opacity:1;" />
<path d="M 32.507812 154.414062 L 32.507812 138.160156 C 32.507812 129.183594 25.230469 121.90625 16.253906 121.90625 L 0 121.90625 L 0 154.414062 Z M 32.507812 154.414062 " style=" stroke:none;fill-rule:nonzero;fill:rgb(90.196078%,39.215686%,43.137255%);fill-opacity:1;" />
<path d="M 463.238281 186.921875 C 463.238281 209.363281 445.046875 227.554688 422.601562 227.554688 C 400.160156 227.554688 381.96875 209.363281 381.96875 186.921875 C 381.96875 164.480469 400.160156 146.285156 422.601562 146.285156 C 445.046875 146.285156 463.238281 164.480469 463.238281 186.921875 Z M 463.238281 186.921875 " style=" stroke:none;fill-rule:nonzero;fill:rgb(43.529412%,39.607843%,44.313725%);fill-opacity:1;" />
<path d="M 442.921875 186.921875 C 442.921875 198.140625 433.824219 207.238281 422.601562 207.238281 C 411.382812 207.238281 402.285156 198.140625 402.285156 186.921875 C 402.285156 175.699219 411.382812 166.605469 422.601562 166.605469 C 433.824219 166.605469 442.921875 175.699219 442.921875 186.921875 Z M 442.921875 186.921875 " style=" stroke:none;fill-rule:nonzero;fill:rgb(78.823529%,77.647059%,79.215686%);fill-opacity:1;" />
<path d="M 146.285156 186.921875 C 146.285156 209.363281 128.09375 227.554688 105.652344 227.554688 C 83.207031 227.554688 65.015625 209.363281 65.015625 186.921875 C 65.015625 164.480469 83.207031 146.285156 105.652344 146.285156 C 128.09375 146.285156 146.285156 164.480469 146.285156 186.921875 Z M 146.285156 186.921875 " style=" stroke:none;fill-rule:nonzero;fill:rgb(43.529412%,39.607843%,44.313725%);fill-opacity:1;" />
<path d="M 125.96875 186.921875 C 125.96875 198.140625 116.871094 207.238281 105.652344 207.238281 C 94.429688 207.238281 85.335938 198.140625 85.335938 186.921875 C 85.335938 175.699219 94.429688 166.605469 105.652344 166.605469 C 116.871094 166.605469 125.96875 175.699219 125.96875 186.921875 Z M 125.96875 186.921875 " style=" stroke:none;fill-rule:nonzero;fill:rgb(78.823529%,77.647059%,79.215686%);fill-opacity:1;" />
<path d="M 235.683594 48.761719 L 251.9375 48.761719 L 251.9375 97.523438 L 235.683594 97.523438 Z M 235.683594 48.761719 " style=" stroke:none;fill-rule:nonzero;fill:rgb(43.529412%,39.607843%,44.313725%);fill-opacity:1;" />
<path d="M 235.683594 48.761719 L 251.9375 48.761719 L 251.9375 65.015625 L 235.683594 65.015625 Z M 235.683594 48.761719 " style=" stroke:none;fill-rule:nonzero;fill:rgb(36.470588%,32.54902%,37.647059%);fill-opacity:1;" />
<path d="M 235.683594 97.523438 L 251.9375 97.523438 L 251.9375 162.539062 L 235.683594 162.539062 Z M 235.683594 97.523438 " style=" stroke:none;fill-rule:nonzero;fill:rgb(85.882353%,85.098039%,86.27451%);fill-opacity:1;" />
<path d="M 0 138.160156 L 32.507812 138.160156 L 32.507812 154.414062 L 0 154.414062 Z M 0 138.160156 " style=" stroke:none;fill-rule:nonzero;fill:rgb(86.27451%,27.45098%,33.333333%);fill-opacity:1;" />
</g>
</svg>