<svg xmlns="http://www.w3.org/2000/svg" height="512pt" version="1.1" viewBox="0 -102 512.00015 512" width="512pt">
<g id="surface1">
<path d="M 138.160156 138.148438 C 124.71875 138.148438 113.78125 127.214844 113.78125 113.769531 C 113.78125 109.277344 117.414062 105.640625 121.90625 105.640625 C 126.398438 105.640625 130.035156 109.277344 130.035156 113.769531 C 130.035156 118.253906 133.675781 121.894531 138.160156 121.894531 C 142.644531 121.894531 146.289062 118.253906 146.289062 113.769531 C 146.289062 110.261719 144.058594 107.167969 140.75 106.054688 C 134.335938 103.914062 130.035156 97.691406 130.035156 90.570312 L 130.035156 24.382812 C 130.035156 19.890625 133.667969 16.253906 138.160156 16.253906 C 142.652344 16.253906 146.289062 19.890625 146.289062 24.382812 L 146.289062 90.570312 C 155.859375 93.976562 162.542969 103.269531 162.542969 113.769531 C 162.542969 127.214844 151.605469 138.148438 138.160156 138.148438 Z M 138.160156 138.148438 " style=" stroke:none;fill-rule:nonzero;fill:rgb(68.235294%,65.882353%,68.627451%);fill-opacity:1;" />
<path d="M 138.160156 73.144531 C 133.671875 73.144531 130.035156 76.78125 130.035156 81.269531 L 130.035156 90.570312 C 130.035156 97.691406 134.335938 103.914062 140.75 106.054688 C 144.058594 107.167969 146.289062 110.261719 146.289062 113.769531 C 146.289062 118.253906 142.644531 121.898438 138.160156 121.898438 C 133.675781 121.898438 130.035156 118.253906 130.035156 113.769531 C 130.035156 109.277344 126.398438 105.644531 121.90625 105.644531 C 117.414062 105.644531 113.78125 109.277344 113.78125 113.769531 C 113.78125 129.539062 128.824219 141.859375 145.316406 137.125 C 152.390625 135.097656 158.3125 129.664062 160.886719 122.769531 C 166.058594 108.9375 158.539062 94.929688 146.289062 90.570312 L 146.289062 81.269531 C 146.289062 76.78125 142.648438 73.144531 138.160156 73.144531 Z M 138.160156 73.144531 " style=" stroke:none;fill-rule:nonzero;fill:rgb(61.176471%,58.823529%,61.960784%);fill-opacity:1;" />
<path d="M 144.195312 1.148438 C 135.867188 -2.144531 126.40625 1.878906 123.070312 10.203125 C 119.738281 18.546875 123.789062 28 132.125 31.339844 L 284.433594 92.261719 L 306.734375 66.164062 Z M 144.195312 1.148438 " style=" stroke:none;fill-rule:nonzero;fill:rgb(100%,76.470588%,41.176471%);fill-opacity:1;" />
<path d="M 123.117188 10.113281 L 295.65625 79.128906 L 306.734375 66.164062 L 144.195312 1.148438 C 135.898438 -2.132812 126.488281 1.855469 123.117188 10.113281 Z M 123.117188 10.113281 " style=" stroke:none;fill-rule:nonzero;fill:rgb(100%,88.235294%,49.019608%);fill-opacity:1;" />
<path d="M 260.066406 235.671875 C 255.574219 235.671875 251.9375 232.039062 251.9375 227.546875 L 251.9375 178.785156 C 251.9375 174.292969 255.574219 170.65625 260.066406 170.65625 C 264.558594 170.65625 268.191406 174.292969 268.191406 178.785156 L 268.191406 227.546875 C 268.191406 232.039062 264.558594 235.671875 260.066406 235.671875 Z M 260.066406 235.671875 " style=" stroke:none;fill-rule:nonzero;fill:rgb(100%,66.666667%,37.254902%);fill-opacity:1;" />
<path d="M 300.699219 65.007812 C 291.722656 65.007812 284.445312 72.28125 284.445312 81.261719 L 284.445312 227.546875 L 316.953125 227.554688 L 316.953125 81.261719 C 316.953125 72.28125 309.675781 65.007812 300.699219 65.007812 Z M 300.699219 65.007812 " style=" stroke:none;fill-rule:nonzero;fill:rgb(100%,76.470588%,41.176471%);fill-opacity:1;" />
<path d="M 300.699219 65.007812 C 291.722656 65.007812 284.445312 72.28125 284.445312 81.261719 L 284.445312 227.546875 L 300.699219 227.550781 Z M 300.699219 65.007812 " style=" stroke:none;fill-rule:nonzero;fill:rgb(100%,66.666667%,37.254902%);fill-opacity:1;" />
<path d="M 121.90625 227.554688 L 316.953125 227.554688 L 316.953125 276.316406 L 8.128906 276.316406 L 8.128906 268.179688 Z M 121.90625 227.554688 " style=" stroke:none;fill-rule:nonzero;fill:rgb(36.470588%,32.54902%,37.647059%);fill-opacity:1;" />
<path d="M 365.714844 73.144531 C 356.738281 73.144531 349.460938 80.421875 349.460938 89.398438 L 349.460938 113.777344 L 381.96875 113.777344 L 381.96875 89.398438 C 381.96875 80.417969 374.691406 73.144531 365.714844 73.144531 Z M 365.714844 73.144531 " style=" stroke:none;fill-rule:nonzero;fill:rgb(100%,76.470588%,41.176471%);fill-opacity:1;" />
<path d="M 365.714844 73.144531 L 365.714844 113.777344 L 349.460938 113.777344 L 349.460938 89.398438 C 349.460938 80.421875 356.738281 73.144531 365.714844 73.144531 Z M 365.714844 73.144531 " style=" stroke:none;fill-rule:nonzero;fill:rgb(100%,66.666667%,37.254902%);fill-opacity:1;" />
<path d="M 488.519531 181.792969 L 430.730469 162.527344 L 397.390625 115.859375 C 392.8125 109.453125 385.425781 105.648438 377.550781 105.648438 L 316.953125 105.648438 L 316.953125 276.304688 L 503.875 276.304688 L 503.875 203.09375 C 503.875 193.429688 497.6875 184.847656 488.519531 181.792969 Z M 488.519531 181.792969 " style=" stroke:none;fill-rule:nonzero;fill:rgb(92.941176%,92.156863%,92.941176%);fill-opacity:1;" />
<path d="M 381.96875 203.175781 L 503.875 203.175781 L 503.875 203.09375 C 503.875 193.429688 497.6875 184.847656 488.519531 181.792969 L 430.730469 162.53125 L 424.933594 154.414062 L 357.589844 154.414062 L 357.589844 178.792969 C 357.589844 192.257812 368.503906 203.175781 381.96875 203.175781 Z M 381.96875 203.175781 " style=" stroke:none;fill-rule:nonzero;fill:rgb(96.470588%,96.078431%,96.470588%);fill-opacity:1;" />
<path d="M 333.207031 211.300781 L 333.207031 105.652344 L 316.953125 105.652344 L 316.953125 276.316406 L 438.859375 276.316406 L 438.859375 227.554688 L 349.460938 227.554688 C 340.484375 227.554688 333.207031 220.277344 333.207031 211.300781 Z M 333.207031 211.300781 " style=" stroke:none;fill-rule:nonzero;fill:rgb(85.882353%,85.098039%,86.27451%);fill-opacity:1;" />
<path d="M 503.875 243.796875 L 463.238281 243.808594 L 463.238281 276.316406 L 503.875 276.304688 C 508.363281 276.304688 512 272.667969 512 268.179688 L 512 251.925781 C 512 247.4375 508.363281 243.796875 503.875 243.796875 Z M 503.875 243.796875 " style=" stroke:none;fill-rule:nonzero;fill:rgb(78.823529%,77.647059%,79.215686%);fill-opacity:1;" />
<path d="M 124.34375 219.421875 C 116.328125 219.421875 108.480469 220.878906 101.003906 223.753906 L 5.210938 260.59375 C 1.027344 262.207031 -1.066406 266.910156 0.542969 271.101562 C 1.789062 274.332031 4.867188 276.308594 8.128906 276.308594 C 9.097656 276.308594 10.089844 276.132812 11.050781 275.769531 L 106.84375 238.925781 C 112.445312 236.769531 118.335938 235.671875 124.34375 235.671875 L 316.953125 235.671875 L 316.953125 219.417969 L 124.34375 219.417969 Z M 124.34375 219.421875 " style=" stroke:none;fill-rule:nonzero;fill:rgb(100%,76.470588%,41.176471%);fill-opacity:1;" />
<path d="M 479.492188 268.1875 C 479.492188 290.632812 461.300781 308.824219 438.859375 308.824219 C 416.417969 308.824219 398.222656 290.632812 398.222656 268.1875 C 398.222656 245.746094 416.417969 227.554688 438.859375 227.554688 C 461.300781 227.554688 479.492188 245.746094 479.492188 268.1875 Z M 479.492188 268.1875 " style=" stroke:none;fill-rule:nonzero;fill:rgb(43.529412%,39.607843%,44.313725%);fill-opacity:1;" />
<path d="M 459.175781 268.1875 C 459.175781 279.410156 450.078125 288.507812 438.859375 288.507812 C 427.636719 288.507812 418.542969 279.410156 418.542969 268.1875 C 418.542969 256.96875 427.636719 247.871094 438.859375 247.871094 C 450.078125 247.871094 459.175781 256.96875 459.175781 268.1875 Z M 459.175781 268.1875 " style=" stroke:none;fill-rule:nonzero;fill:rgb(78.823529%,77.647059%,79.215686%);fill-opacity:1;" />
<path d="M 170.667969 268.1875 C 170.667969 290.632812 152.476562 308.824219 130.035156 308.824219 C 107.59375 308.824219 89.398438 290.632812 89.398438 268.1875 C 89.398438 245.746094 107.59375 227.554688 130.035156 227.554688 C 152.476562 227.554688 170.667969 245.746094 170.667969 268.1875 Z M 170.667969 268.1875 " style=" stroke:none;fill-rule:nonzero;fill:rgb(43.529412%,39.607843%,44.313725%);fill-opacity:1;" />
<path d="M 150.351562 268.1875 C 150.351562 279.410156 141.253906 288.507812 130.035156 288.507812 C 118.8125 288.507812 109.71875 279.410156 109.71875 268.1875 C 109.71875 256.96875 118.8125 247.871094 130.035156 247.871094 C 141.253906 247.871094 150.351562 256.96875 150.351562 268.1875 Z M 150.351562 268.1875 " style=" stroke:none;fill-rule:nonzero;fill:rgb(78.823529%,77.647059%,79.215686%);fill-opacity:1;" />
<path d="M 430.730469 162.527344 L 401.707031 121.902344 L 357.589844 121.902344 C 353.101562 121.902344 349.460938 125.542969 349.460938 130.03125 L 349.460938 146.285156 C 349.460938 155.261719 356.738281 162.539062 365.714844 162.539062 L 430.761719 162.539062 Z M 430.730469 162.527344 " style=" stroke:none;fill-rule:nonzero;fill:rgb(76.862745%,87.058824%,100%);fill-opacity:1;" />
<path d="M 413.320312 138.15625 L 401.707031 121.902344 L 357.589844 121.902344 C 353.097656 121.902344 349.460938 125.542969 349.460938 130.03125 L 349.460938 138.15625 Z M 413.320312 138.15625 " style=" stroke:none;fill-rule:nonzero;fill:rgb(64.705882%,80.392157%,100%);fill-opacity:1;" />
<path d="M 503.875 227.554688 L 495.746094 227.554688 C 491.257812 227.554688 487.621094 223.914062 487.621094 219.425781 L 487.621094 211.300781 C 487.621094 206.8125 491.257812 203.171875 495.746094 203.171875 L 503.875 203.171875 Z M 503.875 227.554688 " style=" stroke:none;fill-rule:nonzero;fill:rgb(100%,66.666667%,37.254902%);fill-opacity:1;" />
</g>
</svg>