<svg id="svg" version="1.1" xmlns="http://www.w3.org/2000/svg" xmlns:xlink="http://www.w3.org/1999/xlink" width="400" height="309.6774193548387" viewBox="0, 0, 400,309.6774193548387"><g id="svgg"><path id="path0" d="M196.836 33.772 C 196.747 34.115,196.414 34.392,196.091 34.392 C 195.714 34.392,195.507 34.611,195.507 35.012 C 195.507 35.425,195.301 35.631,194.888 35.631 C 194.475 35.631,194.268 35.838,194.268 36.251 C 194.268 36.664,194.061 36.871,193.648 36.871 C 193.235 36.871,193.029 37.077,193.029 37.490 C 193.029 37.903,192.822 38.110,192.409 38.110 C 192.009 38.110,191.789 38.317,191.789 38.694 C 191.789 39.016,191.513 39.349,191.170 39.439 C 190.829 39.528,190.550 39.827,190.550 40.103 C 190.550 40.378,190.201 40.737,189.775 40.899 C 189.349 41.061,189.001 41.406,189.001 41.665 C 189.001 41.931,188.730 42.138,188.381 42.138 C 187.968 42.138,187.761 42.344,187.761 42.758 C 187.761 43.171,187.555 43.377,187.142 43.377 C 186.729 43.377,186.522 43.584,186.522 43.997 C 186.522 44.410,186.316 44.617,185.902 44.617 C 185.489 44.617,185.283 44.823,185.283 45.236 C 185.283 45.649,185.076 45.856,184.663 45.856 C 184.263 45.856,184.043 46.062,184.043 46.439 C 184.043 46.762,183.767 47.095,183.424 47.185 C 183.083 47.274,182.804 47.573,182.804 47.849 C 182.804 48.124,182.455 48.482,182.029 48.644 C 181.603 48.806,181.255 49.152,181.255 49.411 C 181.255 49.677,180.984 49.884,180.635 49.884 C 180.222 49.884,180.015 50.090,180.015 50.503 C 180.015 50.917,179.809 51.123,179.396 51.123 C 178.983 51.123,178.776 51.330,178.776 51.743 C 178.776 52.156,178.570 52.363,178.156 52.363 C 177.743 52.363,177.537 52.569,177.537 52.982 C 177.537 53.395,177.330 53.602,176.917 53.602 C 176.517 53.602,176.297 53.808,176.297 54.185 C 176.297 54.508,176.021 54.841,175.678 54.931 C 175.307 55.028,175.058 55.354,175.058 55.742 C 175.058 56.194,174.861 56.390,174.409 56.390 C 174.021 56.390,173.696 56.639,173.599 57.010 C 173.509 57.353,173.176 57.630,172.853 57.630 C 172.476 57.630,172.270 57.849,172.270 58.249 C 172.270 58.663,172.063 58.869,171.650 58.869 C 171.237 58.869,171.030 59.076,171.030 59.489 C 171.030 59.902,170.824 60.108,170.411 60.108 C 169.997 60.108,169.791 60.315,169.791 60.728 C 169.791 61.141,169.584 61.348,169.171 61.348 C 168.758 61.348,168.552 61.554,168.552 61.967 C 168.552 62.381,168.345 62.587,167.932 62.587 C 167.516 62.587,167.312 62.794,167.312 63.214 C 167.312 63.599,167.012 63.956,166.538 64.136 C 166.112 64.298,165.763 64.643,165.763 64.903 C 165.763 65.169,165.492 65.376,165.143 65.376 C 164.730 65.376,164.524 65.582,164.524 65.995 C 164.524 66.408,164.317 66.615,163.904 66.615 C 163.491 66.615,163.284 66.822,163.284 67.235 C 163.284 67.648,163.078 67.854,162.665 67.854 C 162.251 67.854,162.045 68.061,162.045 68.474 C 162.045 68.887,161.838 69.094,161.425 69.094 C 161.012 69.094,160.806 69.300,160.806 69.713 C 160.806 70.062,160.599 70.333,160.333 70.333 C 160.073 70.333,159.728 70.682,159.566 71.108 C 159.386 71.582,159.028 71.882,158.644 71.882 C 158.224 71.882,158.017 72.086,158.017 72.502 C 158.017 72.862,157.810 73.122,157.523 73.122 C 157.252 73.122,156.957 73.400,156.867 73.741 C 156.778 74.084,156.445 74.361,156.122 74.361 C 155.745 74.361,155.538 74.580,155.538 74.981 C 155.538 75.394,155.332 75.600,154.919 75.600 C 154.506 75.600,154.299 75.807,154.299 76.220 C 154.299 76.633,154.092 76.840,153.679 76.840 C 153.266 76.840,153.060 77.046,153.060 77.459 C 153.060 77.808,152.853 78.079,152.587 78.079 C 152.327 78.079,151.982 78.428,151.820 78.854 C 151.640 79.328,151.283 79.628,150.898 79.628 C 150.478 79.628,150.271 79.832,150.271 80.248 C 150.271 80.661,150.065 80.868,149.651 80.868 C 149.238 80.868,149.032 81.074,149.032 81.487 C 149.032 81.900,148.825 82.107,148.412 82.107 C 147.999 82.107,147.792 82.313,147.792 82.727 C 147.792 83.140,147.586 83.346,147.173 83.346 C 146.760 83.346,146.553 83.553,146.553 83.966 C 146.553 84.379,146.347 84.586,145.933 84.586 C 145.520 84.586,145.314 84.792,145.314 85.205 C 145.314 85.618,145.107 85.825,144.694 85.825 C 144.278 85.825,144.074 86.032,144.074 86.452 C 144.074 86.836,143.774 87.194,143.300 87.374 C 142.874 87.536,142.525 87.881,142.525 88.141 C 142.525 88.407,142.254 88.613,141.905 88.613 C 141.492 88.613,141.286 88.820,141.286 89.233 C 141.286 89.646,141.079 89.853,140.666 89.853 C 140.253 89.853,140.046 90.059,140.046 90.473 C 140.046 90.886,139.840 91.092,139.427 91.092 C 139.014 91.092,138.807 91.299,138.807 91.712 C 138.807 92.125,138.601 92.332,138.187 92.332 C 137.774 92.332,137.568 92.538,137.568 92.951 C 137.568 93.300,137.361 93.571,137.095 93.571 C 136.836 93.571,136.490 93.919,136.328 94.345 C 136.148 94.820,135.791 95.120,135.407 95.120 C 134.999 95.120,134.779 95.324,134.779 95.704 C 134.779 96.027,134.503 96.359,134.160 96.449 C 133.819 96.538,133.540 96.833,133.540 97.105 C 133.540 97.392,133.281 97.599,132.920 97.599 C 132.507 97.599,132.301 97.805,132.301 98.218 C 132.301 98.632,132.094 98.838,131.681 98.838 C 131.268 98.838,131.061 99.045,131.061 99.458 C 131.061 99.871,130.855 100.077,130.442 100.077 C 130.028 100.077,129.822 100.284,129.822 100.697 C 129.822 101.046,129.615 101.317,129.349 101.317 C 129.090 101.317,128.744 101.665,128.582 102.091 C 128.402 102.566,128.045 102.866,127.661 102.866 C 127.240 102.866,127.033 103.070,127.033 103.486 C 127.033 103.899,126.827 104.105,126.414 104.105 C 126.001 104.105,125.794 104.312,125.794 104.725 C 125.794 105.066,125.594 105.345,125.350 105.345 C 124.153 105.345,124.637 108.536,125.885 108.871 C 127.735 109.367,136.295 109.072,136.859 108.493 C 137.163 108.179,137.657 107.835,137.955 107.728 C 138.253 107.621,138.497 107.316,138.497 107.051 C 138.497 106.786,138.846 106.436,139.272 106.274 C 139.698 106.112,140.046 105.767,140.046 105.507 C 140.046 105.247,140.246 105.035,140.490 105.035 C 140.734 105.035,141.018 104.771,141.120 104.449 C 141.223 104.126,141.581 103.791,141.916 103.703 C 142.251 103.615,142.525 103.338,142.525 103.086 C 142.525 102.834,142.804 102.556,143.145 102.466 C 143.486 102.377,143.765 102.098,143.765 101.847 C 143.765 101.595,144.043 101.316,144.384 101.227 C 144.725 101.138,145.004 100.843,145.004 100.571 C 145.004 100.300,145.216 100.077,145.476 100.077 C 145.736 100.077,146.074 99.748,146.227 99.345 C 146.380 98.942,146.795 98.537,147.149 98.445 C 147.503 98.352,147.792 98.071,147.792 97.819 C 147.792 97.567,148.071 97.288,148.412 97.199 C 148.753 97.110,149.032 96.831,149.032 96.579 C 149.032 96.328,149.311 96.049,149.651 95.960 C 149.992 95.871,150.271 95.592,150.271 95.340 C 150.271 95.088,150.550 94.810,150.891 94.720 C 151.232 94.631,151.510 94.352,151.510 94.101 C 151.510 93.849,151.789 93.570,152.130 93.481 C 152.471 93.392,152.750 93.097,152.750 92.825 C 152.750 92.554,152.962 92.332,153.222 92.332 C 153.482 92.332,153.820 92.002,153.973 91.599 C 154.126 91.197,154.541 90.791,154.895 90.699 C 155.249 90.606,155.538 90.325,155.538 90.073 C 155.538 89.821,155.817 89.542,156.158 89.453 C 156.499 89.364,156.778 89.069,156.778 88.797 C 156.778 88.526,157.000 88.304,157.271 88.304 C 157.543 88.304,157.838 88.025,157.927 87.684 C 158.016 87.343,158.295 87.064,158.547 87.064 C 158.799 87.064,159.077 86.785,159.167 86.445 C 159.256 86.104,159.535 85.825,159.786 85.825 C 160.038 85.825,160.317 85.546,160.406 85.205 C 160.495 84.864,160.764 84.586,161.003 84.586 C 161.243 84.586,161.597 84.237,161.791 83.811 C 161.986 83.385,162.344 83.036,162.588 83.036 C 162.833 83.036,163.102 82.770,163.187 82.445 C 163.272 82.120,163.608 81.785,163.933 81.700 C 164.258 81.615,164.524 81.323,164.524 81.051 C 164.524 80.780,164.746 80.558,165.017 80.558 C 165.289 80.558,165.584 80.279,165.673 79.938 C 165.762 79.597,166.041 79.318,166.293 79.318 C 166.545 79.318,166.823 79.040,166.913 78.699 C 167.002 78.358,167.281 78.079,167.532 78.079 C 167.784 78.079,168.063 77.800,168.152 77.459 C 168.241 77.119,168.510 76.840,168.749 76.840 C 168.989 76.840,169.343 76.491,169.537 76.065 C 169.732 75.639,170.018 75.290,170.174 75.290 C 170.551 75.290,172.270 73.561,172.270 73.182 C 172.270 73.018,172.548 72.811,172.889 72.722 C 173.230 72.633,173.509 72.354,173.509 72.102 C 173.509 71.851,173.788 71.572,174.129 71.483 C 174.469 71.394,174.748 71.098,174.748 70.827 C 174.748 70.555,174.970 70.333,175.242 70.333 C 175.514 70.333,175.805 70.067,175.890 69.742 C 175.975 69.417,176.311 69.081,176.636 68.996 C 176.961 68.911,177.227 68.642,177.227 68.398 C 177.227 68.154,177.576 67.795,178.002 67.601 C 178.428 67.407,178.776 67.052,178.776 66.813 C 178.776 66.573,179.055 66.305,179.396 66.215 C 179.737 66.126,180.015 65.831,180.015 65.560 C 180.015 65.272,180.275 65.066,180.635 65.066 C 181.035 65.066,181.255 64.859,181.255 64.482 C 181.255 64.159,181.532 63.826,181.875 63.737 C 182.215 63.648,182.494 63.352,182.494 63.081 C 182.494 62.794,182.753 62.587,183.114 62.587 C 183.527 62.587,183.734 62.381,183.734 61.967 C 183.734 61.607,183.940 61.348,184.227 61.348 C 184.499 61.348,184.790 61.086,184.873 60.766 C 184.957 60.446,185.362 60.031,185.774 59.843 C 186.185 59.655,186.522 59.290,186.522 59.031 C 186.522 58.771,186.744 58.559,187.016 58.559 C 187.287 58.559,187.583 58.280,187.672 57.940 C 187.761 57.599,188.040 57.320,188.291 57.320 C 188.543 57.320,188.822 57.041,188.911 56.700 C 189.000 56.359,189.279 56.081,189.531 56.081 C 189.782 56.081,190.061 55.802,190.150 55.461 C 190.239 55.120,190.518 54.841,190.770 54.841 C 191.022 54.841,191.301 54.562,191.390 54.222 C 191.479 53.881,191.748 53.602,191.987 53.602 C 192.226 53.602,192.581 53.253,192.775 52.827 C 192.969 52.401,193.315 52.053,193.543 52.053 C 193.771 52.053,193.958 51.866,193.958 51.638 C 193.958 51.409,194.307 51.064,194.733 50.870 C 195.159 50.676,195.507 50.321,195.507 50.082 C 195.507 49.842,195.786 49.573,196.127 49.484 C 196.468 49.395,196.747 49.116,196.747 48.865 C 196.747 48.613,197.026 48.334,197.366 48.245 C 197.707 48.156,197.986 47.861,197.986 47.589 C 197.986 47.317,198.200 47.095,198.461 47.095 C 198.722 47.095,199.062 46.782,199.216 46.398 L 199.496 45.701 199.516 46.398 C 199.529 46.882,199.725 47.095,200.155 47.095 C 200.568 47.095,200.775 47.302,200.775 47.715 C 200.775 48.128,200.981 48.335,201.394 48.335 C 201.755 48.335,202.014 48.541,202.014 48.828 C 202.014 49.100,202.293 49.395,202.634 49.484 C 202.977 49.574,203.253 49.907,203.253 50.230 C 203.253 50.551,203.394 50.813,203.565 50.813 C 203.737 50.813,204.180 51.162,204.551 51.588 C 204.921 52.014,205.408 52.363,205.633 52.363 C 205.858 52.363,206.042 52.641,206.042 52.982 C 206.042 53.395,206.248 53.602,206.662 53.602 C 207.075 53.602,207.281 53.808,207.281 54.222 C 207.281 54.622,207.488 54.841,207.865 54.841 C 208.188 54.841,208.521 55.118,208.610 55.461 C 208.699 55.802,208.995 56.081,209.266 56.081 C 209.553 56.081,209.760 56.340,209.760 56.700 C 209.760 57.101,209.966 57.320,210.343 57.320 C 210.666 57.320,210.999 57.597,211.089 57.940 C 211.178 58.280,211.473 58.559,211.745 58.559 C 212.016 58.559,212.239 58.719,212.239 58.915 C 212.239 59.356,214.256 61.348,214.702 61.348 C 214.881 61.348,215.027 61.627,215.027 61.967 C 215.027 62.381,215.234 62.587,215.647 62.587 C 216.060 62.587,216.266 62.794,216.266 63.207 C 216.266 63.620,216.473 63.826,216.886 63.826 C 217.299 63.826,217.506 64.033,217.506 64.446 C 217.506 64.859,217.712 65.066,218.125 65.066 C 218.542 65.066,218.745 65.272,218.745 65.695 C 218.745 66.041,218.985 66.417,219.278 66.529 C 219.936 66.782,221.534 68.386,221.534 68.795 C 221.534 68.959,221.813 69.094,222.153 69.094 C 222.514 69.094,222.773 69.300,222.773 69.587 C 222.773 69.859,223.052 70.154,223.393 70.243 C 223.736 70.333,224.012 70.666,224.012 70.989 C 224.012 71.366,224.232 71.572,224.632 71.572 C 225.045 71.572,225.252 71.779,225.252 72.192 C 225.252 72.605,225.458 72.812,225.871 72.812 C 226.285 72.812,226.491 73.018,226.491 73.431 C 226.491 73.772,226.637 74.051,226.816 74.051 C 226.994 74.051,227.733 74.679,228.457 75.445 C 229.182 76.212,229.942 76.840,230.147 76.840 C 230.351 76.840,230.519 77.119,230.519 77.459 C 230.519 77.860,230.726 78.079,231.103 78.079 C 231.425 78.079,231.758 78.356,231.848 78.699 C 231.937 79.040,232.232 79.318,232.504 79.318 C 232.791 79.318,232.998 79.578,232.998 79.938 C 232.998 80.338,233.204 80.558,233.581 80.558 C 233.904 80.558,234.237 80.834,234.327 81.177 C 234.416 81.518,234.711 81.797,234.983 81.797 C 235.254 81.797,235.476 81.957,235.476 82.153 C 235.476 82.593,237.494 84.586,237.940 84.586 C 238.119 84.586,238.265 84.864,238.265 85.205 C 238.265 85.618,238.471 85.825,238.885 85.825 C 239.298 85.825,239.504 86.032,239.504 86.445 C 239.504 86.858,239.711 87.064,240.124 87.064 C 240.537 87.064,240.744 87.271,240.744 87.684 C 240.744 88.097,240.950 88.304,241.363 88.304 C 241.780 88.304,241.983 88.510,241.983 88.933 C 241.983 89.279,242.223 89.655,242.516 89.767 C 243.174 90.019,244.771 91.624,244.771 92.032 C 244.771 92.197,245.050 92.332,245.391 92.332 C 245.752 92.332,246.011 92.538,246.011 92.825 C 246.011 93.097,246.290 93.392,246.631 93.481 C 246.973 93.571,247.250 93.904,247.250 94.227 C 247.250 94.604,247.470 94.810,247.870 94.810 C 248.230 94.810,248.490 95.017,248.490 95.304 C 248.490 95.576,248.768 95.871,249.109 95.960 C 249.452 96.049,249.729 96.382,249.729 96.705 C 249.729 97.026,249.871 97.289,250.044 97.289 C 250.431 97.289,252.517 99.402,252.517 99.794 C 252.517 99.950,252.796 100.077,253.137 100.077 C 253.550 100.077,253.757 100.284,253.757 100.697 C 253.757 101.097,253.963 101.317,254.340 101.317 C 254.663 101.317,254.996 101.594,255.086 101.936 C 255.175 102.277,255.470 102.556,255.742 102.556 C 256.029 102.556,256.235 102.815,256.235 103.176 C 256.235 103.576,256.442 103.796,256.819 103.796 C 257.142 103.796,257.475 104.072,257.565 104.415 C 257.654 104.756,257.933 105.035,258.184 105.035 C 258.436 105.035,258.718 105.324,258.810 105.678 C 258.902 106.031,259.267 106.396,259.621 106.488 C 259.974 106.581,260.263 106.854,260.263 107.095 C 260.263 107.336,260.507 107.624,260.806 107.735 C 261.104 107.846,261.530 108.191,261.753 108.500 C 262.408 109.410,271.906 109.344,273.080 108.421 C 274.020 107.681,274.246 105.769,273.431 105.457 C 273.176 105.359,272.967 105.014,272.967 104.692 C 272.967 104.324,272.749 104.105,272.383 104.105 C 272.060 104.105,271.727 103.829,271.638 103.486 C 271.541 103.115,271.215 102.866,270.827 102.866 C 270.375 102.866,270.178 102.669,270.178 102.217 C 270.178 101.829,269.929 101.504,269.558 101.407 C 269.216 101.317,268.939 100.984,268.939 100.661 C 268.939 100.296,268.720 100.077,268.355 100.077 C 268.032 100.077,267.699 99.801,267.610 99.458 C 267.521 99.117,267.242 98.838,266.990 98.838 C 266.738 98.838,266.459 98.559,266.370 98.218 C 266.281 97.878,265.986 97.599,265.715 97.599 C 265.427 97.599,265.221 97.340,265.221 96.979 C 265.221 96.579,265.014 96.359,264.637 96.359 C 264.314 96.359,263.981 96.083,263.892 95.740 C 263.795 95.369,263.469 95.120,263.081 95.120 C 262.629 95.120,262.432 94.923,262.432 94.471 C 262.432 94.083,262.183 93.758,261.813 93.661 C 261.470 93.571,261.193 93.238,261.193 92.915 C 261.193 92.550,260.974 92.332,260.609 92.332 C 260.286 92.332,259.953 92.055,259.864 91.712 C 259.775 91.371,259.496 91.092,259.244 91.092 C 258.992 91.092,258.714 90.813,258.624 90.473 C 258.535 90.132,258.240 89.853,257.969 89.853 C 257.681 89.853,257.475 89.594,257.475 89.233 C 257.475 88.827,257.268 88.613,256.876 88.613 C 256.547 88.613,256.189 88.335,256.081 87.994 C 255.972 87.653,255.671 87.374,255.411 87.374 C 255.151 87.374,254.866 87.100,254.779 86.765 C 254.691 86.430,254.356 86.072,254.033 85.969 C 253.711 85.867,253.447 85.514,253.447 85.184 C 253.447 84.805,253.234 84.586,252.863 84.586 C 252.540 84.586,252.208 84.309,252.118 83.966 C 252.029 83.625,251.750 83.346,251.498 83.346 C 251.246 83.346,250.968 83.067,250.878 82.727 C 250.789 82.386,250.494 82.107,250.223 82.107 C 249.935 82.107,249.729 81.848,249.729 81.487 C 249.729 81.087,249.522 80.868,249.145 80.868 C 248.822 80.868,248.489 80.591,248.400 80.248 C 248.311 79.907,248.038 79.628,247.794 79.628 C 247.549 79.628,247.191 79.280,246.997 78.854 C 246.803 78.428,246.432 78.079,246.172 78.079 C 245.908 78.079,245.701 77.807,245.701 77.459 C 245.701 77.059,245.494 76.840,245.117 76.840 C 244.795 76.840,244.462 76.563,244.372 76.220 C 244.283 75.879,244.004 75.600,243.752 75.600 C 243.501 75.600,243.222 75.321,243.133 74.981 C 243.043 74.640,242.748 74.361,242.477 74.361 C 242.190 74.361,241.983 74.102,241.983 73.741 C 241.983 73.328,241.776 73.122,241.363 73.122 C 241.003 73.122,240.744 72.915,240.744 72.628 C 240.744 72.356,240.478 72.065,240.153 71.980 C 239.828 71.895,239.489 71.549,239.401 71.211 C 239.313 70.873,238.951 70.521,238.598 70.429 C 238.244 70.336,237.955 70.055,237.955 69.803 C 237.955 69.551,237.689 69.276,237.364 69.191 C 237.039 69.106,236.703 68.770,236.618 68.445 C 236.533 68.120,236.258 67.854,236.006 67.854 C 235.755 67.854,235.476 67.576,235.387 67.235 C 235.297 66.894,235.002 66.615,234.731 66.615 C 234.444 66.615,234.237 66.356,234.237 65.995 C 234.237 65.589,234.030 65.376,233.638 65.376 C 233.309 65.376,232.951 65.097,232.843 64.756 C 232.735 64.415,232.446 64.136,232.202 64.136 C 231.958 64.136,231.758 63.924,231.758 63.665 C 231.758 63.406,231.410 63.035,230.984 62.841 C 230.558 62.646,230.209 62.231,230.209 61.918 C 230.209 61.566,229.986 61.348,229.626 61.348 C 229.303 61.348,228.970 61.071,228.880 60.728 C 228.791 60.387,228.496 60.108,228.224 60.108 C 227.937 60.108,227.730 59.849,227.730 59.489 C 227.730 59.088,227.524 58.869,227.147 58.869 C 226.824 58.869,226.491 58.592,226.401 58.249 C 226.312 57.909,226.033 57.630,225.782 57.630 C 225.530 57.630,225.251 57.351,225.162 57.010 C 225.073 56.669,224.800 56.390,224.556 56.390 C 224.312 56.390,223.953 56.042,223.759 55.616 C 223.565 55.190,223.194 54.841,222.935 54.841 C 222.670 54.841,222.463 54.570,222.463 54.222 C 222.463 53.808,222.257 53.602,221.844 53.602 C 221.483 53.602,221.224 53.395,221.224 53.108 C 221.224 52.837,220.945 52.541,220.604 52.452 C 220.261 52.363,219.985 52.030,219.985 51.707 C 219.985 51.330,219.765 51.123,219.365 51.123 C 218.952 51.123,218.745 50.917,218.745 50.503 C 218.745 50.103,218.539 49.884,218.162 49.884 C 217.839 49.884,217.506 49.607,217.416 49.264 C 217.327 48.923,217.048 48.644,216.796 48.644 C 216.545 48.644,216.263 48.355,216.171 48.002 C 216.078 47.648,215.726 47.287,215.389 47.199 C 215.051 47.110,214.705 46.772,214.620 46.447 C 214.535 46.122,214.260 45.856,214.008 45.856 C 213.756 45.856,213.477 45.577,213.388 45.236 C 213.299 44.895,213.020 44.617,212.768 44.617 C 212.517 44.617,212.238 44.338,212.149 43.997 C 212.060 43.656,211.765 43.377,211.493 43.377 C 211.206 43.377,210.999 43.118,210.999 42.758 C 210.999 42.352,210.793 42.138,210.400 42.138 C 210.071 42.138,209.713 41.859,209.605 41.518 C 209.497 41.177,209.209 40.899,208.964 40.899 C 208.720 40.899,208.521 40.686,208.521 40.427 C 208.521 40.168,208.172 39.797,207.746 39.603 C 207.320 39.409,206.971 38.993,206.971 38.680 C 206.971 38.328,206.748 38.110,206.388 38.110 C 206.065 38.110,205.732 37.833,205.642 37.490 C 205.553 37.149,205.258 36.871,204.986 36.871 C 204.699 36.871,204.493 36.611,204.493 36.251 C 204.493 35.851,204.286 35.631,203.909 35.631 C 203.586 35.631,203.253 35.355,203.164 35.012 C 203.074 34.671,202.796 34.392,202.544 34.392 C 202.292 34.392,202.013 34.113,201.924 33.772 C 201.780 33.220,201.502 33.153,199.380 33.153 C 197.259 33.153,196.981 33.220,196.836 33.772 " stroke="none" fill="#b41b24" fill-rule="evenodd"></path><path id="path1" d="M126.003 200.310 L 125.491 200.930 125.700 200.310 C 125.883 199.769,125.846 199.742,125.406 200.100 C 125.128 200.326,124.978 200.709,125.071 200.952 C 125.164 201.195,125.095 201.394,124.917 201.394 C 124.739 201.394,124.614 201.673,124.640 202.014 C 124.665 202.355,124.804 202.634,124.949 202.634 C 125.093 202.634,125.110 202.797,124.987 202.996 C 124.836 203.240,124.932 203.294,125.278 203.161 C 125.673 203.009,125.794 203.142,125.794 203.728 C 125.794 204.277,125.963 204.493,126.392 204.493 C 126.776 204.493,127.026 204.742,127.089 205.190 C 127.153 205.638,127.437 205.922,127.885 205.986 C 128.329 206.049,128.582 206.299,128.582 206.673 C 128.582 207.067,128.735 207.203,129.043 207.085 C 129.345 206.969,129.609 207.186,129.810 207.714 C 129.978 208.158,130.313 208.521,130.553 208.521 C 130.793 208.521,131.062 208.799,131.151 209.140 C 131.240 209.481,131.519 209.760,131.771 209.760 C 132.022 209.760,132.301 210.039,132.390 210.380 C 132.479 210.720,132.775 210.999,133.046 210.999 C 133.491 210.999,133.679 211.357,133.577 212.006 C 133.556 212.134,133.809 212.239,134.138 212.239 C 134.522 212.239,134.772 212.488,134.835 212.936 C 134.899 213.384,135.183 213.668,135.631 213.732 C 136.079 213.795,136.328 214.045,136.328 214.429 C 136.328 214.758,136.433 215.011,136.561 214.990 C 137.246 214.882,137.568 215.092,137.568 215.647 C 137.568 216.060,137.774 216.266,138.187 216.266 C 138.601 216.266,138.807 216.473,138.807 216.886 C 138.807 217.299,139.014 217.506,139.427 217.506 C 139.840 217.506,140.046 217.712,140.046 218.125 C 140.046 218.539,140.253 218.745,140.666 218.745 C 141.079 218.745,141.286 218.952,141.286 219.365 C 141.286 219.778,141.492 219.985,141.905 219.985 C 142.246 219.985,142.543 220.124,142.564 220.294 C 142.585 220.465,142.620 220.778,142.641 220.991 C 142.663 221.204,142.854 221.396,143.067 221.418 C 143.280 221.439,143.594 221.474,143.765 221.495 C 143.935 221.516,144.074 221.813,144.074 222.153 C 144.074 222.566,144.281 222.773,144.694 222.773 C 145.107 222.773,145.314 222.980,145.314 223.393 C 145.314 223.806,145.520 224.012,145.933 224.012 C 146.347 224.012,146.553 224.219,146.553 224.632 C 146.553 225.045,146.760 225.252,147.173 225.252 C 147.735 225.252,147.831 225.387,147.774 226.104 C 147.764 226.232,148.078 226.415,148.471 226.512 C 148.907 226.619,149.153 226.882,149.101 227.186 C 149.046 227.503,149.272 227.722,149.721 227.785 C 150.183 227.851,150.429 228.099,150.433 228.505 C 150.438 228.929,150.617 229.094,151.000 229.028 C 151.346 228.968,151.619 229.164,151.718 229.542 C 151.806 229.877,152.144 230.221,152.469 230.306 C 152.813 230.396,153.060 230.732,153.060 231.110 C 153.060 231.538,153.258 231.758,153.643 231.758 C 153.966 231.758,154.299 232.035,154.389 232.378 C 154.478 232.719,154.773 232.998,155.045 232.998 C 155.332 232.998,155.538 233.257,155.538 233.617 C 155.538 234.040,155.745 234.237,156.187 234.237 C 156.575 234.237,156.901 234.486,156.998 234.857 C 157.087 235.198,157.343 235.476,157.567 235.476 C 157.791 235.476,158.018 235.790,158.073 236.174 C 158.137 236.622,158.421 236.906,158.869 236.970 C 159.253 237.024,159.566 237.252,159.566 237.476 C 159.566 237.700,159.845 237.956,160.186 238.045 C 160.557 238.142,160.806 238.467,160.806 238.856 C 160.806 239.212,160.910 239.488,161.038 239.468 C 161.668 239.368,161.987 239.559,162.135 240.124 C 162.224 240.465,162.519 240.744,162.791 240.744 C 163.235 240.744,163.423 241.101,163.321 241.751 C 163.301 241.878,163.563 241.983,163.904 241.983 C 164.253 241.983,164.524 242.190,164.524 242.455 C 164.524 242.715,164.879 243.063,165.312 243.228 C 165.810 243.417,166.067 243.726,166.009 244.065 C 165.948 244.424,166.123 244.604,166.538 244.609 C 166.941 244.614,167.192 244.859,167.256 245.314 C 167.320 245.762,167.569 246.011,167.953 246.011 C 168.345 246.011,168.552 246.225,168.552 246.631 C 168.552 246.971,168.656 247.234,168.784 247.214 C 169.413 247.114,169.733 247.305,169.881 247.870 C 169.970 248.211,170.265 248.490,170.536 248.490 C 170.981 248.490,171.169 248.847,171.067 249.497 C 171.047 249.624,171.309 249.729,171.650 249.729 C 171.999 249.729,172.270 249.935,172.270 250.201 C 172.270 250.461,172.632 250.812,173.076 250.980 C 173.604 251.181,173.821 251.445,173.705 251.747 C 173.578 252.078,173.744 252.208,174.293 252.208 C 174.852 252.208,175.058 252.375,175.058 252.827 C 175.058 253.176,175.265 253.447,175.531 253.447 C 175.790 253.447,176.135 253.796,176.297 254.222 C 176.459 254.648,176.805 254.996,177.064 254.996 C 177.324 254.996,177.541 255.170,177.547 255.383 C 177.561 255.971,178.992 257.475,179.536 257.475 C 179.800 257.475,180.015 257.697,180.015 257.969 C 180.015 258.240,180.294 258.535,180.635 258.624 C 180.976 258.714,181.272 258.910,181.294 259.060 C 181.315 259.211,181.350 259.508,181.371 259.721 C 181.392 259.934,181.723 260.153,182.107 260.207 C 182.490 260.262,182.804 260.497,182.804 260.729 C 182.804 260.961,183.083 261.240,183.424 261.348 C 183.765 261.456,184.043 261.718,184.043 261.930 C 184.043 262.415,185.654 263.981,186.152 263.981 C 186.489 263.981,186.653 264.388,186.559 264.988 C 186.539 265.116,186.801 265.221,187.142 265.221 C 187.490 265.221,187.761 265.427,187.761 265.693 C 187.761 265.953,188.116 266.301,188.550 266.465 C 189.052 266.656,189.306 266.963,189.247 267.310 C 189.183 267.689,189.327 267.825,189.722 267.758 C 190.075 267.698,190.348 267.891,190.448 268.271 C 190.535 268.607,190.873 268.951,191.198 269.036 C 191.523 269.121,191.789 269.403,191.789 269.664 C 191.789 269.924,192.053 270.220,192.376 270.322 C 192.698 270.425,193.033 270.783,193.121 271.118 C 193.209 271.453,193.503 271.727,193.774 271.727 C 194.219 271.727,194.407 272.085,194.305 272.734 C 194.285 272.862,194.547 272.967,194.888 272.967 C 195.236 272.967,195.507 273.173,195.507 273.439 C 195.507 273.699,195.870 274.049,196.313 274.218 C 196.842 274.419,197.059 274.683,196.943 274.985 C 196.749 275.489,196.879 275.520,199.535 275.605 C 201.244 275.659,202.166 275.323,201.824 274.770 C 201.724 274.607,201.935 274.398,202.293 274.304 C 202.651 274.210,202.943 273.946,202.943 273.716 C 202.943 273.209,204.005 272.591,204.347 272.900 C 204.482 273.022,204.499 272.959,204.385 272.759 C 204.135 272.323,205.040 271.336,205.455 271.593 C 205.616 271.692,205.727 271.658,205.703 271.518 C 205.582 270.819,205.790 270.488,206.352 270.488 C 206.810 270.488,206.971 270.281,206.971 269.695 C 206.971 269.211,207.100 268.982,207.303 269.107 C 207.682 269.341,209.806 267.095,209.569 266.712 C 209.483 266.573,209.778 266.460,210.225 266.460 C 210.671 266.460,210.957 266.333,210.861 266.178 C 210.622 265.791,212.797 263.597,213.183 263.836 C 213.354 263.941,213.473 263.913,213.449 263.772 C 213.312 262.985,213.521 262.468,213.915 262.619 C 214.167 262.716,214.427 262.547,214.532 262.219 C 214.631 261.907,215.027 261.514,215.412 261.345 C 215.797 261.176,216.065 260.916,216.009 260.767 C 215.952 260.617,216.244 260.269,216.659 259.992 C 217.073 259.715,217.352 259.314,217.278 259.101 C 217.193 258.854,217.446 258.714,217.978 258.714 C 218.588 258.714,218.764 258.591,218.635 258.254 C 218.441 257.748,219.438 257.047,219.839 257.408 C 219.973 257.530,219.991 257.467,219.876 257.267 C 219.627 256.831,220.532 255.844,220.947 256.101 C 221.108 256.200,221.219 256.167,221.195 256.026 C 221.074 255.333,221.279 254.996,221.822 254.996 C 222.185 254.996,222.459 254.748,222.519 254.364 C 222.574 254.017,222.740 253.749,222.889 253.770 C 223.039 253.791,223.421 253.413,223.740 252.930 C 224.058 252.448,224.319 252.174,224.320 252.323 C 224.321 252.472,224.530 252.421,224.784 252.210 C 225.037 252.000,225.163 251.695,225.062 251.532 C 224.962 251.369,225.172 251.160,225.530 251.066 C 225.888 250.973,226.181 250.708,226.181 250.478 C 226.181 249.971,227.243 249.354,227.584 249.662 C 227.719 249.784,227.736 249.721,227.622 249.521 C 227.359 249.061,228.289 248.105,228.733 248.380 C 228.921 248.496,228.976 248.441,228.860 248.253 C 228.609 247.847,229.526 246.864,229.924 247.111 C 230.081 247.208,230.209 246.922,230.209 246.476 C 230.209 246.029,230.332 245.740,230.481 245.833 C 230.864 246.069,233.079 243.914,232.844 243.534 C 232.733 243.355,232.997 243.222,233.462 243.222 C 233.909 243.222,234.196 243.097,234.101 242.943 C 233.873 242.573,236.074 240.384,236.444 240.612 C 236.602 240.710,236.711 240.675,236.687 240.534 C 236.566 239.841,236.749 239.178,237.015 239.343 C 237.180 239.445,237.493 239.244,237.710 238.897 C 237.927 238.549,238.220 238.265,238.362 238.265 C 238.503 238.265,238.828 238.056,239.084 237.800 C 239.339 237.545,239.434 237.334,239.294 237.333 C 239.154 237.332,239.434 237.071,239.917 236.753 C 240.400 236.434,240.748 236.052,240.692 235.903 C 240.635 235.753,240.902 235.587,241.286 235.532 C 241.724 235.470,241.983 235.219,241.983 234.856 C 241.983 234.539,242.262 234.190,242.603 234.082 C 242.943 233.974,243.222 233.686,243.222 233.442 C 243.222 233.020,243.627 232.850,244.307 232.987 C 244.477 233.021,244.517 232.950,244.395 232.828 C 244.038 232.471,244.739 231.456,245.216 231.639 C 245.500 231.748,245.687 231.555,245.754 231.085 C 245.810 230.688,245.978 230.410,246.127 230.467 C 246.277 230.524,246.642 230.199,246.940 229.744 C 247.238 229.290,247.599 228.949,247.742 228.986 C 247.885 229.023,248.147 228.791,248.323 228.469 C 248.726 227.738,249.161 227.416,249.482 227.614 C 249.618 227.698,249.729 227.556,249.729 227.298 C 249.729 226.691,251.168 225.252,251.775 225.252 C 252.033 225.252,252.165 225.124,252.068 224.967 C 251.839 224.596,252.791 223.644,253.162 223.873 C 253.319 223.970,253.447 223.684,253.447 223.238 C 253.447 222.792,253.582 222.510,253.747 222.612 C 253.911 222.714,254.224 222.513,254.441 222.165 C 254.658 221.818,255.006 221.534,255.215 221.534 C 255.664 221.534,256.300 220.462,256.018 220.180 C 255.910 220.073,256.194 219.985,256.649 219.985 C 257.103 219.985,257.458 219.880,257.438 219.752 C 257.339 219.122,257.530 218.803,258.096 218.655 C 258.510 218.547,258.654 218.328,258.527 217.999 C 258.353 217.546,258.572 217.446,259.566 217.524 C 259.694 217.534,259.878 217.220,259.975 216.827 C 260.077 216.414,260.367 216.129,260.660 216.153 C 260.940 216.175,261.158 216.105,261.144 215.998 C 261.066 215.375,261.248 215.027,261.652 215.027 C 261.904 215.027,262.198 214.680,262.304 214.255 C 262.411 213.830,262.590 213.539,262.701 213.608 C 262.990 213.786,264.042 212.966,263.925 212.654 C 263.871 212.511,264.140 212.349,264.524 212.294 C 264.962 212.232,265.221 211.981,265.221 211.618 C 265.221 211.301,265.500 210.952,265.840 210.844 C 266.181 210.736,266.460 210.448,266.460 210.204 C 266.460 209.782,266.865 209.612,267.545 209.749 C 267.715 209.783,267.755 209.712,267.633 209.590 C 267.281 209.239,268.012 208.145,268.479 208.324 C 268.741 208.425,268.939 208.230,269.004 207.806 C 269.062 207.432,269.282 207.162,269.495 207.206 C 269.708 207.250,270.015 206.935,270.178 206.507 C 270.341 206.078,270.630 205.763,270.820 205.807 C 271.010 205.851,271.327 205.608,271.524 205.267 C 271.970 204.496,272.398 204.177,272.720 204.376 C 272.855 204.460,272.967 204.242,272.967 203.891 C 272.967 203.540,273.114 203.253,273.295 203.253 C 273.475 203.253,273.542 203.122,273.443 202.962 C 273.344 202.803,273.510 202.528,273.812 202.352 C 274.177 202.140,274.219 202.030,273.938 202.023 C 273.668 202.017,273.573 201.789,273.676 201.394 C 273.765 201.053,273.722 200.846,273.579 200.934 C 273.436 201.023,273.123 200.814,272.883 200.472 C 272.643 200.129,272.354 199.941,272.242 200.054 C 272.129 200.166,272.037 200.130,272.037 199.974 C 272.037 199.493,262.468 199.614,262.283 200.097 C 262.197 200.321,261.983 200.415,261.807 200.306 C 261.631 200.198,261.526 200.294,261.572 200.519 C 261.619 200.745,261.448 200.930,261.193 200.930 C 260.937 200.930,260.547 201.247,260.326 201.636 C 260.105 202.024,259.807 202.270,259.664 202.181 C 259.368 201.998,258.759 202.632,258.783 203.098 C 258.792 203.269,258.525 203.549,258.190 203.720 C 257.854 203.892,257.637 204.206,257.708 204.418 C 257.782 204.639,257.572 204.802,257.212 204.802 C 256.865 204.802,256.502 205.071,256.395 205.406 C 256.290 205.738,255.932 206.096,255.600 206.202 C 255.268 206.307,254.996 206.593,254.996 206.837 C 254.996 207.086,254.701 207.281,254.325 207.281 C 253.956 207.281,253.742 207.369,253.849 207.477 C 254.199 207.826,253.420 208.886,252.947 208.705 C 252.686 208.605,252.407 208.758,252.289 209.068 C 252.176 209.363,251.838 209.870,251.537 210.194 C 251.236 210.518,251.063 210.902,251.152 211.046 C 251.242 211.191,250.958 211.309,250.522 211.309 C 249.935 211.309,249.729 211.470,249.729 211.929 C 249.729 212.273,249.522 212.548,249.264 212.548 C 249.009 212.548,248.799 212.753,248.799 213.002 C 248.799 213.530,247.746 214.180,247.420 213.854 C 247.298 213.733,247.227 213.772,247.261 213.943 C 247.430 214.780,247.220 215.392,246.816 215.237 C 246.558 215.138,246.318 215.313,246.225 215.668 C 246.134 216.019,245.801 216.266,245.420 216.266 C 244.841 216.266,244.712 216.434,244.797 217.080 C 244.811 217.187,244.484 217.500,244.069 217.777 C 243.655 218.054,243.376 218.455,243.450 218.668 C 243.534 218.911,243.290 219.055,242.793 219.055 C 242.223 219.055,242.051 219.183,242.178 219.513 C 242.290 219.805,242.063 220.102,241.549 220.337 C 241.106 220.539,240.744 220.890,240.744 221.119 C 240.744 221.495,240.356 221.668,239.737 221.570 C 239.609 221.550,239.521 221.638,239.541 221.766 C 239.649 222.451,239.439 222.773,238.885 222.773 C 238.432 222.773,238.265 222.980,238.265 223.538 C 238.265 224.042,238.126 224.250,237.858 224.147 C 237.634 224.061,237.263 224.343,237.032 224.776 C 236.801 225.207,236.543 225.492,236.460 225.409 C 236.184 225.133,235.510 225.909,235.668 226.321 C 235.761 226.563,235.511 226.803,235.041 226.921 C 234.514 227.053,234.317 227.267,234.436 227.579 C 234.560 227.901,234.408 228.040,233.931 228.040 C 233.510 228.040,233.188 228.277,233.087 228.660 C 232.996 229.011,232.665 229.280,232.324 229.280 C 231.993 229.280,231.801 229.408,231.898 229.564 C 232.119 229.923,231.181 230.892,230.826 230.672 C 230.681 230.583,230.518 230.826,230.464 231.212 C 230.400 231.661,230.151 231.914,229.770 231.915 C 229.443 231.915,229.107 232.124,229.024 232.379 C 228.941 232.634,228.603 233.079,228.273 233.369 C 227.943 233.658,227.764 234.041,227.875 234.221 C 227.997 234.417,227.755 234.547,227.266 234.547 C 226.820 234.547,226.534 234.675,226.631 234.832 C 226.877 235.230,225.894 236.147,225.489 235.896 C 225.300 235.780,225.245 235.835,225.362 236.023 C 225.615 236.433,224.694 237.410,224.290 237.160 C 224.129 237.061,224.017 237.094,224.041 237.235 C 224.189 238.084,223.971 238.625,223.548 238.463 C 223.268 238.355,223.083 238.461,223.083 238.728 C 223.083 239.226,222.033 239.900,221.729 239.597 C 221.557 239.424,221.483 239.738,221.559 240.318 C 221.573 240.424,221.213 240.756,220.759 241.053 C 220.305 241.351,219.980 241.717,220.036 241.867 C 220.093 242.016,219.826 242.182,219.442 242.237 C 218.994 242.301,218.745 242.550,218.745 242.934 C 218.745 243.326,218.531 243.532,218.125 243.532 C 217.712 243.532,217.506 243.739,217.506 244.152 C 217.506 244.565,217.299 244.771,216.886 244.771 C 216.545 244.771,216.283 244.876,216.303 245.004 C 216.411 245.689,216.202 246.011,215.647 246.011 C 215.234 246.011,215.027 246.217,215.027 246.631 C 215.027 247.050,214.821 247.250,214.389 247.250 C 214.038 247.250,213.817 247.356,213.897 247.486 C 213.977 247.616,213.846 247.991,213.605 248.320 C 213.365 248.649,213.168 248.804,213.168 248.666 C 213.168 248.527,212.967 248.580,212.722 248.784 C 212.476 248.988,212.350 249.348,212.440 249.584 C 212.545 249.856,212.320 250.084,211.823 250.209 C 211.318 250.336,211.100 250.560,211.208 250.842 C 211.326 251.148,211.135 251.278,210.568 251.278 C 210.123 251.278,209.776 251.383,209.797 251.510 C 209.896 252.142,209.717 252.517,209.316 252.517 C 209.072 252.517,208.784 252.796,208.675 253.137 C 208.495 253.704,208.349 253.792,207.668 253.738 C 207.541 253.728,207.357 254.042,207.260 254.436 C 207.156 254.857,206.869 255.133,206.563 255.108 C 206.199 255.078,206.042 255.305,206.042 255.857 C 206.042 256.292,205.954 256.561,205.846 256.453 C 205.495 256.101,204.509 256.846,204.692 257.325 C 204.821 257.659,204.648 257.785,204.061 257.785 C 203.617 257.785,203.270 257.889,203.290 258.017 C 203.389 258.642,203.212 259.024,202.825 259.024 C 202.589 259.024,202.323 259.303,202.234 259.644 C 202.137 260.014,201.811 260.263,201.423 260.263 C 200.971 260.263,200.775 260.460,200.775 260.912 C 200.775 261.294,200.527 261.626,200.172 261.718 C 199.840 261.805,199.506 262.106,199.430 262.387 C 199.318 262.799,199.249 262.767,199.073 262.221 C 198.941 261.812,198.683 261.611,198.420 261.712 C 198.181 261.804,197.986 261.724,197.986 261.534 C 197.986 261.344,197.637 260.886,197.211 260.515 C 196.785 260.145,196.437 259.658,196.437 259.433 C 196.437 259.208,196.308 259.024,196.150 259.024 C 195.770 259.024,191.170 254.446,191.170 254.069 C 191.170 253.908,190.960 253.856,190.705 253.955 C 190.449 254.053,190.240 253.993,190.240 253.821 C 190.240 253.415,188.103 251.278,187.697 251.278 C 187.526 251.278,187.461 251.082,187.553 250.842 C 187.660 250.563,187.448 250.337,186.966 250.216 C 186.485 250.095,186.212 249.805,186.212 249.413 C 186.212 248.873,185.905 248.665,185.236 248.752 C 185.126 248.767,184.950 248.440,184.846 248.025 C 184.719 247.522,184.504 247.331,184.195 247.449 C 183.875 247.572,183.734 247.423,183.734 246.964 C 183.734 246.599,183.490 246.211,183.191 246.101 C 182.330 245.783,181.266 244.666,181.260 244.074 C 181.257 243.776,181.150 243.549,181.022 243.569 C 180.206 243.698,179.658 243.484,179.807 243.096 C 179.914 242.816,179.700 242.591,179.208 242.467 C 178.786 242.361,178.530 242.130,178.640 241.953 C 178.858 241.601,177.836 240.713,177.472 240.939 C 177.347 241.016,177.157 240.729,177.050 240.302 C 176.943 239.875,176.706 239.555,176.524 239.592 C 176.342 239.629,176.030 239.346,175.830 238.964 C 175.631 238.581,175.370 238.366,175.251 238.486 C 175.131 238.605,174.953 238.395,174.855 238.019 C 174.756 237.643,174.486 237.335,174.255 237.335 C 174.023 237.335,173.605 236.987,173.325 236.561 C 173.046 236.135,172.610 235.786,172.356 235.786 C 172.073 235.786,171.962 235.606,172.071 235.325 C 172.190 235.013,171.993 234.799,171.466 234.667 C 170.974 234.543,170.744 234.313,170.846 234.047 C 170.947 233.783,170.722 233.552,170.247 233.433 C 169.828 233.327,169.542 233.150,169.611 233.039 C 169.816 232.706,168.927 231.681,168.605 231.880 C 168.442 231.981,168.222 231.721,168.117 231.302 C 167.989 230.792,167.773 230.599,167.464 230.718 C 167.150 230.838,167.002 230.697,167.002 230.276 C 167.002 229.871,166.730 229.588,166.215 229.459 C 165.782 229.350,165.508 229.132,165.605 228.974 C 165.703 228.816,165.431 228.457,165.001 228.175 C 164.571 227.893,164.287 227.553,164.369 227.420 C 164.452 227.286,164.167 227.088,163.735 226.980 C 163.220 226.851,162.982 226.601,163.040 226.250 C 163.098 225.903,162.895 225.683,162.461 225.621 C 162.058 225.564,161.719 225.231,161.606 224.780 C 161.490 224.317,161.258 224.096,160.996 224.197 C 160.730 224.299,160.499 224.068,160.376 223.577 C 160.244 223.050,160.029 222.853,159.718 222.972 C 159.399 223.094,159.256 222.947,159.256 222.496 C 159.256 222.127,159.058 221.844,158.799 221.844 C 158.547 221.844,158.113 221.495,157.834 221.069 C 157.554 220.643,157.118 220.294,156.864 220.294 C 156.594 220.294,156.471 220.113,156.569 219.858 C 156.676 219.578,156.462 219.353,155.971 219.230 C 155.471 219.104,155.236 218.852,155.294 218.504 C 155.353 218.152,155.147 217.937,154.687 217.872 C 154.259 217.811,153.919 217.490,153.806 217.040 C 153.693 216.587,153.461 216.370,153.199 216.470 C 152.932 216.573,152.702 216.338,152.575 215.832 C 152.464 215.392,152.255 215.105,152.111 215.194 C 151.966 215.284,151.617 215.005,151.335 214.575 C 151.054 214.145,150.719 213.857,150.592 213.936 C 150.466 214.014,150.205 213.734,150.013 213.313 C 149.822 212.893,149.438 212.548,149.160 212.548 C 148.841 212.548,148.721 212.379,148.833 212.087 C 148.952 211.777,148.757 211.562,148.241 211.432 C 147.757 211.311,147.502 211.051,147.554 210.732 C 147.607 210.412,147.386 210.189,146.959 210.128 C 146.537 210.068,146.245 209.776,146.185 209.354 C 146.132 208.981,145.883 208.675,145.633 208.675 C 145.382 208.675,145.032 208.385,144.856 208.031 C 144.679 207.676,144.394 207.433,144.223 207.490 C 144.052 207.547,143.770 207.279,143.595 206.895 C 143.420 206.511,143.096 206.236,142.874 206.283 C 142.653 206.331,142.399 206.091,142.310 205.751 C 142.221 205.411,141.887 205.050,141.569 204.949 C 141.250 204.848,141.002 204.669,141.019 204.551 C 141.093 204.034,140.957 203.566,140.744 203.600 C 140.061 203.708,139.689 203.514,139.838 203.127 C 139.945 202.848,139.734 202.622,139.256 202.502 C 138.802 202.388,138.431 202.012,138.314 201.547 C 138.208 201.124,138.004 200.852,137.860 200.940 C 137.716 201.029,137.450 200.824,137.269 200.485 C 137.074 200.121,136.750 199.940,136.479 200.045 C 136.226 200.142,136.019 200.102,136.019 199.956 C 136.019 199.318,126.547 199.653,126.003 200.310 " stroke="none" fill="#2483bc" fill-rule="evenodd"></path><path id="path2" d="M198.993 65.602 C 198.780 65.676,198.606 65.935,198.606 66.176 C 198.606 66.434,198.296 66.615,197.852 66.615 C 197.385 66.615,197.028 66.838,196.912 67.201 C 196.810 67.524,196.452 67.859,196.117 67.947 C 195.782 68.034,195.507 68.312,195.507 68.564 C 195.507 68.816,195.229 69.094,194.888 69.184 C 194.547 69.273,194.268 69.551,194.268 69.803 C 194.268 70.055,193.989 70.334,193.648 70.423 C 193.278 70.520,193.029 70.845,193.029 71.234 C 193.029 71.662,192.831 71.882,192.445 71.882 C 192.122 71.882,191.789 72.159,191.700 72.502 C 191.610 72.843,191.315 73.122,191.044 73.122 C 190.757 73.122,190.550 73.381,190.550 73.741 C 190.550 74.164,190.343 74.361,189.901 74.361 C 189.524 74.361,189.188 74.608,189.098 74.952 C 189.013 75.277,188.678 75.613,188.352 75.698 C 188.027 75.783,187.761 76.058,187.761 76.310 C 187.761 76.561,187.483 76.840,187.142 76.929 C 186.801 77.019,186.522 77.304,186.522 77.564 C 186.522 77.824,186.243 78.126,185.902 78.234 C 185.562 78.342,185.283 78.700,185.283 79.029 C 185.283 79.422,185.069 79.628,184.663 79.628 C 184.250 79.628,184.043 79.835,184.043 80.248 C 184.043 80.661,183.837 80.868,183.424 80.868 C 183.011 80.868,182.804 81.074,182.804 81.487 C 182.804 81.910,182.597 82.107,182.155 82.107 C 181.778 82.107,181.442 82.354,181.352 82.698 C 181.267 83.023,180.932 83.359,180.607 83.444 C 180.281 83.529,180.015 83.820,180.015 84.092 C 180.015 84.363,179.793 84.586,179.522 84.586 C 179.250 84.586,178.958 84.852,178.873 85.177 C 178.788 85.502,178.453 85.837,178.128 85.922 C 177.784 86.012,177.537 86.348,177.537 86.725 C 177.537 87.168,177.339 87.374,176.917 87.374 C 176.504 87.374,176.297 87.581,176.297 87.994 C 176.297 88.407,176.091 88.613,175.678 88.613 C 175.265 88.613,175.058 88.820,175.058 89.233 C 175.058 89.639,174.852 89.853,174.459 89.853 C 174.130 89.853,173.777 90.117,173.674 90.439 C 173.572 90.761,173.214 91.097,172.879 91.185 C 172.544 91.272,172.270 91.550,172.270 91.802 C 172.270 92.053,171.991 92.332,171.650 92.421 C 171.309 92.510,171.030 92.789,171.030 93.041 C 171.030 93.293,170.751 93.572,170.411 93.661 C 170.040 93.758,169.791 94.083,169.791 94.471 C 169.791 94.900,169.593 95.120,169.207 95.120 C 168.884 95.120,168.551 95.397,168.462 95.740 C 168.373 96.081,168.077 96.359,167.806 96.359 C 167.519 96.359,167.312 96.619,167.312 96.979 C 167.312 97.401,167.106 97.599,166.663 97.599 C 166.286 97.599,165.950 97.846,165.860 98.190 C 165.775 98.515,165.440 98.850,165.115 98.935 C 164.790 99.020,164.524 99.296,164.524 99.548 C 164.524 99.799,164.245 100.078,163.904 100.167 C 163.563 100.256,163.284 100.535,163.284 100.787 C 163.284 101.039,163.005 101.317,162.665 101.407 C 162.294 101.504,162.045 101.829,162.045 102.217 C 162.045 102.659,161.848 102.866,161.425 102.866 C 161.012 102.866,160.806 103.073,160.806 103.486 C 160.806 103.899,160.599 104.105,160.186 104.105 C 159.773 104.105,159.566 104.312,159.566 104.725 C 159.566 105.138,159.360 105.345,158.947 105.345 C 158.027 105.345,158.069 107.559,159.005 108.431 C 160.497 109.821,161.449 109.390,165.143 105.655 C 166.997 103.780,168.584 102.246,168.669 102.246 C 168.754 102.246,170.122 100.914,171.709 99.285 C 178.185 92.637,180.054 90.782,180.280 90.782 C 180.410 90.782,180.926 90.233,181.428 89.562 C 181.929 88.891,182.594 88.274,182.904 88.191 C 183.215 88.108,183.538 87.785,183.621 87.475 C 183.704 87.164,184.321 86.499,184.992 85.998 C 185.663 85.497,186.212 84.986,186.212 84.864 C 186.212 84.524,191.693 79.009,192.032 79.009 C 192.195 79.009,192.661 78.520,193.066 77.924 C 193.472 77.327,194.056 76.757,194.364 76.657 C 194.673 76.558,195.064 76.172,195.233 75.800 C 195.403 75.428,196.022 74.795,196.609 74.393 C 197.196 73.991,197.676 73.560,197.676 73.437 C 197.676 73.168,199.122 71.572,199.366 71.572 C 199.732 71.572,200.775 72.838,200.775 73.284 C 200.775 73.544,201.123 73.889,201.549 74.051 C 201.975 74.213,202.324 74.558,202.324 74.818 C 202.324 75.078,202.524 75.290,202.768 75.290 C 203.012 75.290,203.298 75.562,203.403 75.894 C 203.509 76.226,203.867 76.584,204.199 76.690 C 204.531 76.795,204.802 77.086,204.802 77.335 C 204.802 77.584,205.027 77.875,205.301 77.980 C 205.994 78.246,207.133 79.365,207.372 80.015 C 207.511 80.392,207.906 80.558,208.666 80.558 C 209.652 80.558,209.760 80.642,209.765 81.410 C 209.771 82.541,210.064 82.945,211.057 83.195 C 211.642 83.341,212.026 83.757,212.369 84.614 C 212.635 85.280,212.987 85.825,213.150 85.825 C 213.569 85.825,214.880 87.115,215.118 87.761 C 215.228 88.060,215.531 88.304,215.792 88.304 C 216.053 88.304,216.266 88.517,216.266 88.778 C 216.266 89.039,216.510 89.342,216.809 89.452 C 217.402 89.670,218.395 90.672,218.931 91.592 C 219.119 91.913,219.630 92.220,220.067 92.272 C 220.664 92.344,220.982 92.671,221.350 93.589 C 221.655 94.352,222.043 94.814,222.383 94.820 C 223.213 94.835,224.012 95.574,224.012 96.326 C 224.012 96.696,224.242 97.087,224.523 97.194 C 225.109 97.419,226.801 99.119,226.801 99.483 C 226.801 99.617,227.080 99.814,227.421 99.923 C 227.761 100.031,228.040 100.323,228.040 100.573 C 228.040 100.822,228.265 101.113,228.539 101.218 C 229.232 101.484,230.370 102.603,230.610 103.253 C 230.720 103.552,231.103 103.796,231.461 103.796 C 232.290 103.796,232.998 104.497,232.998 105.318 C 232.998 105.752,233.338 106.098,234.062 106.401 C 234.647 106.645,235.339 107.257,235.599 107.761 C 236.410 109.329,238.677 109.648,239.202 108.268 C 239.879 106.487,239.501 104.105,238.542 104.105 C 238.162 104.105,237.955 103.887,237.955 103.486 C 237.955 103.073,237.749 102.866,237.335 102.866 C 236.922 102.866,236.716 102.659,236.716 102.246 C 236.716 101.898,236.509 101.627,236.243 101.627 C 235.983 101.627,235.638 101.278,235.476 100.852 C 235.314 100.426,235.040 100.077,234.867 100.077 C 234.514 100.077,232.688 98.252,232.688 97.899 C 232.688 97.774,232.409 97.598,232.068 97.509 C 231.727 97.420,231.448 97.125,231.448 96.853 C 231.448 96.566,231.189 96.359,230.829 96.359 C 230.416 96.359,230.209 96.153,230.209 95.740 C 230.209 95.327,230.003 95.120,229.589 95.120 C 229.176 95.120,228.970 94.914,228.970 94.500 C 228.970 94.152,228.763 93.881,228.497 93.881 C 228.238 93.881,227.892 93.532,227.730 93.106 C 227.568 92.680,227.240 92.332,227.000 92.332 C 226.760 92.332,226.490 92.053,226.401 91.712 C 226.312 91.371,226.026 91.092,225.766 91.092 C 225.506 91.092,225.205 90.813,225.097 90.473 C 224.989 90.132,224.710 89.853,224.477 89.853 C 224.245 89.853,223.966 89.574,223.857 89.233 C 223.749 88.892,223.391 88.613,223.062 88.613 C 222.670 88.613,222.463 88.400,222.463 87.994 C 222.463 87.581,222.257 87.374,221.844 87.374 C 221.438 87.374,221.224 87.168,221.224 86.775 C 221.224 86.446,220.960 86.093,220.638 85.990 C 220.315 85.888,219.980 85.530,219.892 85.195 C 219.804 84.860,219.510 84.586,219.239 84.586 C 218.967 84.586,218.745 84.373,218.745 84.113 C 218.745 83.853,218.397 83.508,217.971 83.346 C 217.545 83.184,217.196 82.839,217.196 82.579 C 217.196 82.319,216.996 82.107,216.752 82.107 C 216.508 82.107,216.220 81.828,216.112 81.487 C 216.003 81.146,215.645 80.868,215.316 80.868 C 214.924 80.868,214.717 80.654,214.717 80.248 C 214.717 79.835,214.511 79.628,214.098 79.628 C 213.684 79.628,213.478 79.422,213.478 79.009 C 213.478 78.660,213.271 78.389,213.005 78.389 C 212.746 78.389,212.401 78.040,212.239 77.614 C 212.077 77.188,211.748 76.840,211.508 76.840 C 211.268 76.840,210.999 76.561,210.909 76.220 C 210.820 75.879,210.535 75.600,210.275 75.600 C 210.014 75.600,209.713 75.321,209.605 74.981 C 209.497 74.640,209.218 74.361,208.985 74.361 C 208.753 74.361,208.474 74.082,208.366 73.741 C 208.257 73.400,207.899 73.122,207.570 73.122 C 207.178 73.122,206.971 72.908,206.971 72.502 C 206.971 72.089,206.765 71.882,206.352 71.882 C 205.946 71.882,205.732 71.676,205.732 71.283 C 205.732 70.954,205.468 70.601,205.146 70.499 C 204.823 70.396,204.488 70.038,204.400 69.703 C 204.313 69.368,204.019 69.094,203.747 69.094 C 203.475 69.094,203.253 68.881,203.253 68.621 C 203.253 68.361,202.905 68.016,202.479 67.854 C 202.053 67.692,201.704 67.347,201.704 67.087 C 201.704 66.819,201.432 66.615,201.075 66.615 C 200.729 66.615,200.369 66.417,200.276 66.174 C 200.077 65.654,199.535 65.413,198.993 65.602 M120.078 138.300 C 119.643 138.703,119.287 139.191,119.287 139.385 C 119.287 139.578,119.009 140.015,118.668 140.356 C 118.217 140.807,118.048 141.389,118.048 142.489 C 118.048 143.742,117.941 144.030,117.428 144.164 C 116.963 144.286,116.809 144.587,116.809 145.371 C 116.809 146.032,116.581 146.610,116.189 146.946 C 115.726 147.342,115.569 147.860,115.569 148.993 C 115.569 150.248,115.463 150.537,114.950 150.671 C 114.457 150.799,114.330 151.093,114.330 152.101 C 114.330 152.979,114.197 153.369,113.898 153.369 C 113.326 153.369,113.091 154.055,113.091 155.719 C 113.091 156.853,112.991 157.088,112.507 157.088 C 111.855 157.088,111.552 157.882,111.546 159.611 C 111.543 160.306,111.370 160.805,111.094 160.911 C 110.848 161.006,110.554 161.573,110.442 162.173 C 110.314 162.853,110.016 163.333,109.650 163.450 C 109.262 163.573,109.063 163.924,109.063 164.483 C 109.063 165.563,108.547 166.073,107.452 166.073 C 106.598 166.073,106.584 166.102,106.584 167.932 L 106.584 169.791 112.316 169.791 L 118.048 169.791 118.048 167.932 L 118.048 166.073 116.809 166.073 L 115.569 166.073 115.569 164.669 C 115.569 163.704,115.715 163.209,116.036 163.086 C 116.292 162.987,116.589 162.364,116.695 161.701 C 116.813 160.965,117.057 160.496,117.323 160.496 C 117.562 160.496,117.838 160.287,117.936 160.031 C 118.079 159.659,118.755 159.566,121.310 159.566 L 124.505 159.566 124.709 160.494 C 124.821 161.004,125.091 161.527,125.310 161.656 C 125.528 161.785,125.779 162.558,125.868 163.374 C 125.958 164.191,126.278 165.132,126.580 165.466 C 127.117 166.059,127.101 166.073,125.842 166.073 L 124.555 166.073 124.555 167.927 L 124.555 169.782 140.563 169.785 C 154.373 169.788,156.642 169.852,157.086 170.254 C 158.376 171.422,160.496 170.284,160.496 168.424 C 160.496 167.659,160.636 167.312,160.945 167.312 C 161.192 167.312,161.537 167.068,161.710 166.770 C 161.982 166.303,162.027 166.343,162.036 167.054 C 162.041 167.508,161.871 167.939,161.658 168.010 C 161.355 168.112,161.367 168.321,161.710 168.966 L 162.150 169.791 167.781 169.791 C 174.070 169.791,175.840 169.171,173.974 167.622 C 173.718 167.410,173.509 166.975,173.509 166.655 C 173.509 166.182,173.275 166.073,172.270 166.073 C 171.154 166.073,171.030 165.995,171.030 165.298 C 171.030 164.845,171.208 164.524,171.459 164.524 C 171.978 164.524,172.260 163.578,172.265 161.813 C 172.268 160.838,172.393 160.496,172.744 160.496 C 173.005 160.496,173.299 160.287,173.397 160.031 C 173.539 159.660,174.215 159.566,176.762 159.566 C 179.309 159.566,179.985 159.660,180.128 160.031 C 180.226 160.287,180.501 160.496,180.739 160.496 C 181.053 160.496,181.214 161.090,181.327 162.673 C 181.434 164.158,181.659 165.044,182.037 165.461 C 182.579 166.061,182.565 166.073,181.303 166.073 L 180.015 166.073 180.015 167.928 L 180.015 169.783 193.493 169.784 L 206.971 169.785 206.971 167.929 L 206.971 166.073 205.901 166.073 C 203.722 166.073,203.253 165.103,203.253 160.589 L 203.253 156.682 203.909 157.272 C 204.269 157.597,204.684 158.176,204.830 158.559 C 204.977 158.943,205.310 159.256,205.569 159.256 C 205.829 159.256,206.042 159.479,206.042 159.750 C 206.042 160.022,206.321 160.317,206.662 160.406 C 207.038 160.504,207.281 160.829,207.281 161.232 C 207.281 161.597,207.560 162.070,207.901 162.283 C 208.242 162.496,208.521 162.940,208.521 163.269 C 208.521 163.599,208.774 164.051,209.083 164.274 C 209.393 164.496,209.737 164.923,209.848 165.221 C 209.959 165.519,210.264 165.763,210.525 165.763 C 210.786 165.763,210.999 165.975,210.999 166.234 C 210.999 166.494,211.348 166.865,211.774 167.059 C 212.200 167.253,212.548 167.598,212.548 167.827 C 212.548 168.055,212.747 168.242,212.989 168.242 C 213.232 168.242,213.845 168.590,214.351 169.016 C 215.099 169.646,215.605 169.791,217.052 169.791 C 218.212 169.791,218.952 169.943,219.176 170.227 C 219.813 171.034,221.437 171.150,222.052 170.432 C 222.572 169.825,222.919 169.791,228.549 169.791 C 235.440 169.791,235.476 169.783,235.476 168.343 C 235.476 166.676,235.009 166.073,233.718 166.073 C 231.848 166.073,231.779 165.798,231.768 158.278 C 231.759 151.719,231.772 151.572,232.378 151.731 C 232.905 151.868,232.998 152.153,232.998 153.641 C 232.998 155.054,233.117 155.464,233.617 155.776 C 234.013 156.023,234.237 156.499,234.237 157.090 C 234.237 157.810,234.375 158.017,234.857 158.017 C 235.392 158.017,235.476 158.224,235.476 159.541 C 235.476 161.319,235.699 162.045,236.244 162.045 C 236.479 162.045,236.699 162.611,236.794 163.458 C 236.889 164.296,237.221 165.157,237.609 165.570 C 238.002 165.988,238.265 166.676,238.265 167.284 C 238.265 168.039,238.424 168.341,238.885 168.462 C 239.228 168.551,239.504 168.884,239.504 169.207 C 239.504 169.709,239.746 169.791,241.223 169.791 C 243.330 169.791,244.436 168.822,244.452 166.961 C 244.459 166.101,244.608 165.797,245.081 165.673 C 245.537 165.554,245.701 165.251,245.701 164.525 C 245.701 163.902,245.937 163.348,246.340 163.021 C 246.733 162.703,247.050 161.978,247.162 161.143 C 247.262 160.394,247.602 159.524,247.917 159.209 C 248.232 158.894,248.490 158.269,248.490 157.819 C 248.490 157.369,248.702 156.846,248.961 156.656 C 249.221 156.466,249.522 155.764,249.630 155.096 C 249.739 154.428,250.049 153.624,250.320 153.310 C 250.592 152.996,250.897 152.149,250.999 151.428 C 251.101 150.706,251.206 153.698,251.232 158.077 L 251.278 166.037 249.961 166.132 L 248.644 166.228 248.644 167.932 L 248.644 169.636 261.348 169.636 L 274.051 169.636 274.051 167.932 L 274.051 166.228 272.889 166.132 C 271.484 166.015,271.165 164.157,272.347 162.974 C 272.783 162.538,272.967 161.942,272.967 160.960 L 272.967 159.566 276.840 159.566 L 280.713 159.566 280.713 160.493 C 280.713 161.084,280.937 161.560,281.332 161.807 C 282.515 162.545,282.225 165.864,280.945 166.241 C 280.123 166.483,279.884 166.757,279.642 167.735 C 279.157 169.701,279.476 169.791,286.969 169.791 L 293.416 169.791 293.416 167.932 L 293.416 166.073 292.177 166.073 C 291.144 166.073,290.937 165.970,290.937 165.453 C 290.937 165.040,290.731 164.833,290.318 164.833 C 289.863 164.833,289.698 164.627,289.698 164.059 C 289.698 163.633,289.419 163.005,289.078 162.665 C 288.646 162.232,288.459 161.632,288.459 160.676 C 288.459 159.013,288.223 158.327,287.651 158.327 C 287.410 158.327,287.218 158.018,287.217 157.630 C 287.214 156.353,286.581 154.609,286.120 154.609 C 285.800 154.609,285.670 154.243,285.670 153.340 C 285.670 152.333,285.543 152.039,285.050 151.910 C 284.528 151.773,284.431 151.487,284.431 150.083 C 284.431 148.753,284.306 148.339,283.811 148.030 C 283.391 147.768,283.191 147.308,283.191 146.604 C 283.191 145.826,283.036 145.525,282.572 145.403 C 282.052 145.268,281.952 144.981,281.952 143.632 C 281.952 142.451,281.787 141.845,281.332 141.357 C 280.991 140.991,280.713 140.325,280.713 139.876 C 280.713 139.333,280.514 139.007,280.122 138.904 C 279.797 138.819,279.461 138.484,279.376 138.159 C 279.038 136.865,275.954 137.441,275.597 138.865 C 275.483 139.319,275.123 139.932,274.798 140.227 C 274.440 140.550,274.206 141.172,274.206 141.799 C 274.206 142.474,274.057 142.835,273.777 142.835 C 273.274 142.835,272.977 143.773,272.971 145.380 C 272.968 146.211,272.794 146.623,272.347 146.863 C 271.910 147.097,271.727 147.512,271.727 148.268 C 271.727 148.979,271.582 149.342,271.296 149.342 C 270.725 149.342,270.488 150.027,270.488 151.680 C 270.488 152.721,270.343 153.115,269.868 153.369 C 269.438 153.600,269.249 154.018,269.249 154.739 C 269.249 155.487,269.089 155.818,268.676 155.926 C 268.109 156.074,267.699 157.293,267.699 158.830 C 267.699 159.235,267.421 159.845,267.080 160.186 C 266.739 160.527,266.460 161.084,266.460 161.425 C 266.460 161.766,266.181 162.324,265.840 162.665 C 265.500 163.005,265.221 163.557,265.221 163.890 C 265.221 165.954,261.010 166.969,259.447 165.282 L 258.714 164.492 258.714 153.508 C 258.714 143.809,258.770 142.525,259.193 142.525 C 260.337 142.525,261.230 141.060,261.132 139.347 L 261.038 137.723 255.812 137.638 C 249.917 137.542,249.729 137.601,249.729 139.551 C 249.729 140.484,249.558 140.962,249.109 141.286 C 248.684 141.593,248.490 142.088,248.490 142.867 C 248.490 143.742,248.347 144.039,247.870 144.164 C 247.344 144.302,247.250 144.587,247.250 146.038 C 247.250 147.479,247.152 147.782,246.631 147.947 C 246.278 148.059,246.011 148.416,246.011 148.776 C 246.011 149.123,245.662 149.821,245.236 150.328 C 244.785 150.864,244.462 151.638,244.462 152.182 C 244.462 152.696,244.183 153.471,243.842 153.905 C 243.501 154.338,243.222 154.952,243.222 155.270 C 243.222 155.588,243.078 155.848,242.902 155.848 C 242.727 155.848,242.457 156.162,242.302 156.545 C 242.069 157.125,242.019 157.016,242.003 155.897 C 241.987 154.821,241.859 154.518,241.363 154.389 C 240.970 154.286,240.744 153.966,240.744 153.514 C 240.744 152.478,240.430 151.820,239.936 151.820 C 239.630 151.820,239.504 151.408,239.504 150.406 C 239.504 148.806,239.079 147.792,238.409 147.792 C 238.086 147.792,237.955 147.435,237.955 146.553 C 237.955 145.727,237.749 145.107,237.335 144.694 C 236.922 144.281,236.716 143.661,236.716 142.835 C 236.716 141.802,236.612 141.596,236.096 141.596 C 235.572 141.596,235.476 141.389,235.476 140.255 C 235.476 137.722,234.986 137.538,228.477 137.638 L 222.928 137.723 222.835 139.504 C 222.752 141.091,222.808 141.286,223.341 141.286 C 223.680 141.286,224.011 141.555,224.102 141.905 C 224.226 142.380,224.525 142.525,225.378 142.525 L 226.491 142.525 226.491 145.799 C 226.491 147.599,226.341 149.352,226.159 149.694 C 225.976 150.036,225.680 153.600,225.500 157.616 C 225.126 166.008,225.105 166.073,222.740 166.073 C 221.557 166.073,221.267 165.961,221.134 165.453 C 221.010 164.978,220.711 164.833,219.859 164.833 C 218.928 164.833,218.745 164.725,218.745 164.172 C 218.745 163.485,217.330 162.046,216.654 162.045 C 216.441 162.045,216.266 161.829,216.266 161.566 C 216.266 161.303,215.918 160.739,215.492 160.313 C 215.066 159.887,214.717 159.322,214.717 159.058 C 214.717 158.795,214.438 158.506,214.098 158.417 C 213.697 158.312,213.478 157.994,213.478 157.516 C 213.478 157.110,213.212 156.512,212.887 156.187 C 212.305 155.605,212.305 155.593,212.887 155.441 C 213.212 155.356,213.478 155.081,213.478 154.829 C 213.478 154.577,213.757 154.298,214.098 154.209 C 214.438 154.120,214.717 153.825,214.717 153.553 C 214.717 153.282,214.847 153.060,215.005 153.060 C 215.569 153.060,216.266 152.073,216.266 151.276 C 216.266 150.831,216.553 149.874,216.904 149.150 C 217.601 147.710,217.488 145.716,216.692 145.411 C 216.440 145.314,216.265 144.787,216.262 144.119 C 216.256 142.390,215.953 141.596,215.301 141.596 C 214.924 141.596,214.717 141.376,214.717 140.976 C 214.717 140.570,214.511 140.356,214.118 140.356 C 213.789 140.356,213.436 140.093,213.334 139.770 C 213.123 139.106,212.304 138.818,210.612 138.811 C 209.827 138.809,209.450 138.667,209.450 138.376 C 209.450 137.641,208.694 137.568,201.137 137.573 C 192.546 137.578,192.970 137.438,193.091 140.229 L 193.184 142.370 194.345 142.466 L 195.507 142.563 195.507 154.286 L 195.507 166.010 194.191 166.119 C 191.490 166.342,190.460 166.029,190.168 164.896 C 190.023 164.334,189.702 163.797,189.453 163.701 C 189.204 163.606,189.001 163.200,189.001 162.798 C 189.001 162.397,188.740 161.820,188.421 161.515 C 188.049 161.159,187.786 160.362,187.688 159.292 C 187.587 158.190,187.362 157.527,187.028 157.340 C 186.698 157.155,186.522 156.646,186.522 155.875 C 186.522 155.195,186.278 154.378,185.947 153.953 C 185.631 153.547,185.273 152.676,185.152 152.018 C 185.003 151.210,184.738 150.771,184.333 150.665 C 183.835 150.535,183.734 150.229,183.734 148.852 C 183.734 147.512,183.615 147.131,183.114 146.863 C 182.672 146.627,182.494 146.214,182.494 145.429 C 182.494 144.587,182.348 144.288,181.875 144.164 C 181.344 144.026,181.255 143.742,181.255 142.200 C 181.255 140.670,181.161 140.368,180.635 140.201 C 180.215 140.068,180.015 139.733,180.015 139.158 C 180.015 137.958,179.482 137.568,177.839 137.568 C 176.008 137.568,175.058 138.457,175.058 140.173 C 175.058 141.085,174.920 141.380,174.436 141.506 C 173.998 141.621,173.758 142.024,173.622 142.872 C 173.516 143.534,173.253 144.074,173.038 144.074 C 172.492 144.074,172.270 144.799,172.270 146.578 C 172.270 147.674,172.148 148.102,171.838 148.102 C 171.344 148.102,171.030 148.760,171.030 149.796 C 171.030 150.248,170.804 150.568,170.411 150.671 C 169.885 150.808,169.791 151.093,169.791 152.545 C 169.791 153.985,169.692 154.288,169.171 154.454 C 168.694 154.605,168.552 154.923,168.552 155.833 C 168.552 156.755,168.415 157.051,167.932 157.177 C 167.407 157.314,167.312 157.600,167.312 159.036 C 167.312 160.441,167.211 160.760,166.725 160.887 C 166.364 160.981,166.053 161.441,165.915 162.085 C 165.792 162.659,165.428 163.379,165.107 163.684 C 164.786 163.988,164.524 164.483,164.524 164.784 C 164.524 165.577,163.904 166.073,162.912 166.073 C 161.918 166.073,161.671 164.832,162.486 163.928 C 163.371 162.945,163.388 161.879,162.533 160.956 C 162.094 160.483,161.735 159.976,161.735 159.831 C 161.735 159.685,161.177 159.566,160.496 159.566 C 159.045 159.566,158.017 160.401,158.017 161.580 C 158.017 162.006,157.904 162.355,157.767 162.355 C 157.629 162.355,157.106 162.909,156.605 163.587 L 155.693 164.819 151.743 164.826 L 147.792 164.833 147.792 153.679 L 147.792 142.525 148.490 142.520 C 149.847 142.511,150.116 142.065,150.116 139.825 L 150.116 137.723 143.919 137.723 L 137.723 137.723 137.723 139.825 C 137.723 142.065,137.992 142.511,139.349 142.520 L 140.046 142.525 140.046 154.268 L 140.046 166.010 138.730 166.119 C 136.144 166.332,134.779 166.096,134.779 165.435 C 134.779 165.104,134.500 164.555,134.160 164.214 C 133.819 163.873,133.540 163.276,133.540 162.888 C 133.540 162.500,133.261 161.981,132.920 161.735 C 132.449 161.396,132.301 160.933,132.301 159.808 C 132.301 158.740,132.128 158.154,131.681 157.707 C 131.340 157.366,131.061 156.827,131.061 156.510 C 131.061 156.192,130.782 155.577,130.442 155.144 C 130.101 154.711,129.822 154.012,129.822 153.592 C 129.822 152.028,129.416 150.808,128.845 150.658 C 128.456 150.557,128.273 150.224,128.273 149.618 C 128.273 149.063,128.039 148.581,127.653 148.340 C 127.148 148.025,127.033 147.618,127.033 146.140 C 127.033 144.587,126.944 144.303,126.414 144.164 C 125.935 144.039,125.794 143.742,125.794 142.857 C 125.794 142.141,125.562 141.464,125.174 141.047 C 124.833 140.682,124.555 139.968,124.555 139.462 C 124.555 137.514,121.720 136.778,120.078 138.300 M206.338 143.120 C 206.513 143.447,207.090 143.809,207.620 143.926 C 210.484 144.555,210.585 150.581,207.732 150.581 C 207.484 150.581,207.281 150.860,207.281 151.201 C 207.281 152.020,204.695 152.100,203.820 151.308 C 203.125 150.679,202.960 143.562,203.625 142.897 C 204.228 142.294,205.973 142.437,206.338 143.120 M277.630 151.990 C 278.654 152.916,278.388 153.369,276.821 153.369 C 275.959 153.369,275.483 153.249,275.600 153.060 C 275.706 152.889,275.993 152.750,276.238 152.750 C 276.574 152.750,276.698 152.268,276.739 150.813 C 276.780 149.345,276.821 149.187,276.910 150.160 C 276.979 150.920,277.273 151.666,277.630 151.990 M122.076 152.609 C 122.076 153.214,121.917 153.369,121.301 153.369 C 120.579 153.369,120.527 153.265,120.527 151.834 L 120.527 150.299 121.301 151.074 C 121.727 151.500,122.076 152.191,122.076 152.609 M177.094 150.714 C 177.902 151.521,177.670 153.369,176.762 153.369 C 176.039 153.369,175.988 153.266,175.988 151.820 C 175.988 150.226,176.297 149.917,177.094 150.714 M128.983 199.765 C 130.140 199.825,131.953 199.825,133.011 199.764 C 134.069 199.704,133.122 199.655,130.906 199.656 C 128.691 199.656,127.825 199.706,128.983 199.765 M159.411 199.905 C 158.226 200.578,157.754 203.253,158.821 203.253 C 159.092 203.253,159.387 203.532,159.476 203.873 C 159.566 204.216,159.899 204.493,160.222 204.493 C 160.608 204.493,160.806 204.713,160.806 205.141 C 160.806 205.529,161.054 205.855,161.425 205.952 C 161.766 206.041,162.045 206.320,162.045 206.572 C 162.045 206.823,162.324 207.102,162.665 207.191 C 163.005 207.281,163.284 207.559,163.284 207.811 C 163.284 208.063,163.550 208.338,163.875 208.423 C 164.200 208.508,164.536 208.844,164.621 209.169 C 164.706 209.494,164.981 209.760,165.233 209.760 C 165.485 209.760,165.764 210.039,165.853 210.380 C 165.950 210.750,166.275 210.999,166.663 210.999 C 167.106 210.999,167.312 211.197,167.312 211.619 C 167.312 211.968,167.519 212.239,167.785 212.239 C 168.044 212.239,168.390 212.587,168.552 213.013 C 168.713 213.439,169.059 213.788,169.318 213.788 C 169.578 213.788,169.791 214.010,169.791 214.282 C 169.791 214.553,170.070 214.848,170.411 214.937 C 170.751 215.026,171.030 215.305,171.030 215.557 C 171.030 215.809,171.309 216.088,171.650 216.177 C 171.993 216.266,172.270 216.599,172.270 216.922 C 172.270 217.292,172.488 217.506,172.868 217.506 C 173.198 217.506,173.556 217.785,173.664 218.125 C 173.772 218.466,174.130 218.745,174.459 218.745 C 174.852 218.745,175.058 218.959,175.058 219.365 C 175.058 219.778,175.265 219.985,175.678 219.985 C 176.100 219.985,176.297 220.191,176.297 220.633 C 176.297 221.011,176.544 221.346,176.888 221.436 C 177.214 221.521,177.549 221.857,177.634 222.182 C 177.719 222.507,177.995 222.773,178.246 222.773 C 178.498 222.773,178.777 223.052,178.866 223.393 C 178.955 223.734,179.250 224.012,179.522 224.012 C 179.809 224.012,180.015 224.272,180.015 224.632 C 180.015 225.045,180.222 225.252,180.635 225.252 C 180.984 225.252,181.255 225.458,181.255 225.724 C 181.255 225.984,181.603 226.329,182.029 226.491 C 182.455 226.653,182.804 226.998,182.804 227.258 C 182.804 227.524,183.075 227.730,183.424 227.730 C 183.846 227.730,184.043 227.937,184.043 228.379 C 184.043 228.767,184.292 229.093,184.663 229.190 C 185.004 229.279,185.283 229.535,185.283 229.760 C 185.283 229.984,185.562 230.256,185.902 230.364 C 186.243 230.472,186.522 230.774,186.522 231.034 C 186.522 231.294,186.788 231.576,187.113 231.661 C 187.438 231.746,187.774 232.082,187.859 232.407 C 187.944 232.732,188.219 232.998,188.471 232.998 C 188.723 232.998,189.001 233.277,189.091 233.617 C 189.188 233.988,189.513 234.237,189.901 234.237 C 190.343 234.237,190.550 234.434,190.550 234.857 C 190.550 235.205,190.757 235.476,191.022 235.476 C 191.282 235.476,191.627 235.825,191.789 236.251 C 191.951 236.677,192.280 237.026,192.520 237.026 C 192.760 237.026,193.029 237.304,193.118 237.645 C 193.208 237.986,193.486 238.265,193.738 238.265 C 193.990 238.265,194.269 238.544,194.358 238.885 C 194.447 239.225,194.742 239.504,195.014 239.504 C 195.301 239.504,195.507 239.763,195.507 240.124 C 195.507 240.530,195.714 240.744,196.106 240.744 C 196.435 240.744,196.793 241.022,196.902 241.363 C 197.010 241.704,197.337 241.983,197.628 241.983 C 197.920 241.983,198.394 242.259,198.683 242.596 C 199.238 243.244,199.993 243.162,200.276 242.424 C 200.369 242.181,200.729 241.983,201.075 241.983 C 201.432 241.983,201.704 241.779,201.704 241.511 C 201.704 241.251,202.053 240.906,202.479 240.744 C 202.905 240.582,203.253 240.253,203.253 240.013 C 203.253 239.773,203.532 239.504,203.873 239.414 C 204.214 239.325,204.493 239.040,204.493 238.780 C 204.493 238.519,204.771 238.218,205.112 238.110 C 205.453 238.002,205.732 237.723,205.732 237.490 C 205.732 237.258,206.011 236.979,206.352 236.871 C 206.692 236.762,206.971 236.405,206.971 236.075 C 206.971 235.690,207.185 235.476,207.570 235.476 C 207.899 235.476,208.257 235.198,208.366 234.857 C 208.474 234.516,208.753 234.237,208.985 234.237 C 209.218 234.237,209.492 233.973,209.594 233.651 C 209.697 233.328,210.055 232.993,210.390 232.905 C 210.725 232.818,210.999 232.524,210.999 232.252 C 210.999 231.981,211.212 231.758,211.472 231.758 C 211.731 231.758,212.077 231.410,212.239 230.984 C 212.401 230.558,212.746 230.209,213.005 230.209 C 213.265 230.209,213.478 230.009,213.478 229.765 C 213.478 229.521,213.757 229.233,214.098 229.125 C 214.438 229.017,214.717 228.659,214.717 228.329 C 214.717 227.944,214.931 227.730,215.316 227.730 C 215.645 227.730,216.003 227.452,216.112 227.111 C 216.220 226.770,216.508 226.491,216.752 226.491 C 216.996 226.491,217.196 226.279,217.196 226.019 C 217.196 225.759,217.545 225.414,217.971 225.252 C 218.397 225.090,218.745 224.745,218.745 224.485 C 218.745 224.225,218.967 224.012,219.239 224.012 C 219.510 224.012,219.804 223.738,219.892 223.403 C 219.980 223.068,220.315 222.710,220.638 222.608 C 220.960 222.505,221.224 222.231,221.224 221.998 C 221.224 221.766,221.503 221.487,221.844 221.379 C 222.184 221.271,222.463 220.913,222.463 220.583 C 222.463 220.198,222.677 219.985,223.062 219.985 C 223.391 219.985,223.749 219.706,223.857 219.365 C 223.966 219.024,224.245 218.745,224.477 218.745 C 224.710 218.745,224.989 218.466,225.097 218.125 C 225.205 217.785,225.506 217.506,225.766 217.506 C 226.026 217.506,226.312 217.227,226.401 216.886 C 226.490 216.545,226.760 216.266,227.000 216.266 C 227.240 216.266,227.568 215.918,227.730 215.492 C 227.892 215.066,228.238 214.717,228.497 214.717 C 228.757 214.717,228.970 214.518,228.970 214.273 C 228.970 214.029,229.249 213.741,229.589 213.633 C 229.930 213.525,230.209 213.167,230.209 212.837 C 230.209 212.452,230.423 212.239,230.808 212.239 C 231.137 212.239,231.495 211.960,231.603 211.619 C 231.712 211.278,231.990 210.999,232.223 210.999 C 232.456 210.999,232.735 210.720,232.843 210.380 C 232.951 210.039,233.252 209.760,233.512 209.760 C 233.772 209.760,234.058 209.481,234.147 209.140 C 234.236 208.799,234.506 208.521,234.746 208.521 C 234.986 208.521,235.314 208.172,235.476 207.746 C 235.638 207.320,235.983 206.971,236.243 206.971 C 236.503 206.971,236.716 206.772,236.716 206.527 C 236.716 206.283,236.995 205.995,237.335 205.887 C 237.676 205.779,237.955 205.421,237.955 205.091 C 237.955 204.710,238.168 204.493,238.542 204.493 C 239.439 204.493,239.830 202.488,239.312 200.552 C 238.925 199.109,236.251 199.291,235.682 200.800 C 235.459 201.391,234.952 201.846,234.172 202.159 C 233.340 202.492,232.998 202.816,232.998 203.273 C 232.998 204.101,232.292 204.802,231.461 204.802 C 231.103 204.802,230.721 205.046,230.612 205.345 C 230.394 205.944,228.695 207.591,228.294 207.591 C 228.155 207.591,228.040 207.791,228.040 208.035 C 228.040 208.279,227.761 208.567,227.421 208.675 C 227.080 208.784,226.801 208.981,226.801 209.115 C 226.801 209.479,225.109 211.179,224.523 211.404 C 224.242 211.511,224.012 211.925,224.012 212.322 C 224.012 213.240,223.467 213.788,222.554 213.788 C 222.010 213.788,221.721 214.081,221.350 215.009 C 220.982 215.927,220.664 216.254,220.067 216.326 C 219.630 216.378,219.119 216.700,218.931 217.041 C 218.744 217.382,218.416 217.772,218.203 217.909 C 217.990 218.045,217.816 218.358,217.816 218.606 C 217.816 218.855,217.527 219.055,217.167 219.055 C 216.779 219.055,216.453 219.304,216.356 219.675 C 216.267 220.015,215.997 220.294,215.756 220.294 C 215.515 220.294,215.232 220.517,215.127 220.790 C 214.885 221.420,213.542 222.773,213.158 222.773 C 212.998 222.773,212.661 223.266,212.409 223.869 C 212.095 224.620,211.607 225.108,210.855 225.422 C 210.104 225.736,209.760 226.080,209.760 226.517 C 209.760 227.387,209.038 228.040,208.078 228.040 C 207.542 228.040,207.281 228.209,207.281 228.555 C 207.281 229.061,205.552 230.829,205.057 230.829 C 204.917 230.829,204.802 231.029,204.802 231.273 C 204.802 231.517,204.531 231.803,204.199 231.908 C 203.867 232.014,203.509 232.372,203.403 232.704 C 203.298 233.036,203.021 233.308,202.789 233.308 C 202.556 233.308,202.277 233.586,202.169 233.927 C 202.061 234.268,201.768 234.547,201.519 234.547 C 201.269 234.547,200.975 234.791,200.865 235.089 C 200.463 236.177,198.916 237.493,198.916 236.748 C 198.916 236.378,197.299 234.547,196.973 234.547 C 196.600 234.547,195.219 232.910,195.207 232.455 C 195.202 232.242,195.010 232.068,194.780 232.068 C 194.551 232.068,193.792 231.441,193.094 230.674 C 192.397 229.907,191.678 229.280,191.498 229.280 C 191.317 229.280,191.170 229.070,191.170 228.815 C 191.170 228.559,191.042 228.350,190.886 228.350 C 190.572 228.350,189.321 227.152,186.986 224.613 C 186.133 223.686,185.080 222.649,184.645 222.308 C 184.211 221.967,183.762 221.441,183.647 221.139 C 183.532 220.837,183.191 220.496,182.889 220.380 C 182.586 220.265,182.060 219.835,181.720 219.425 C 180.776 218.290,180.308 217.828,177.900 215.650 C 176.678 214.544,175.678 213.531,175.678 213.399 C 175.678 213.266,175.247 212.777,174.720 212.311 C 174.194 211.845,173.392 211.064,172.939 210.574 C 171.091 208.580,168.837 206.352,168.668 206.352 C 168.568 206.352,167.134 204.977,165.480 203.296 C 161.682 199.437,160.955 199.030,159.411 199.905 M261.804 199.857 C 261.553 200.016,261.487 200.152,261.658 200.160 C 261.828 200.168,261.697 200.379,261.366 200.630 C 261.035 200.880,260.909 201.084,261.086 201.084 C 261.468 201.084,262.591 199.901,262.396 199.705 C 262.321 199.630,262.054 199.699,261.804 199.857 M265.619 199.765 C 266.605 199.826,268.139 199.826,269.028 199.763 C 269.916 199.701,269.109 199.650,267.235 199.651 C 265.360 199.652,264.633 199.703,265.619 199.765 M272.657 200.117 C 272.657 200.267,272.866 200.562,273.122 200.775 C 273.377 200.987,273.586 201.352,273.586 201.587 C 273.586 201.822,273.726 202.014,273.896 202.014 C 274.316 202.014,274.287 201.599,273.834 201.146 C 273.630 200.942,273.570 200.775,273.701 200.775 C 273.833 200.775,273.731 200.565,273.476 200.310 C 272.951 199.785,272.657 199.716,272.657 200.117 M138.197 201.295 C 138.185 201.767,139.054 202.636,139.526 202.624 C 139.727 202.619,139.652 202.475,139.359 202.304 C 139.066 202.134,138.687 201.755,138.517 201.462 C 138.346 201.169,138.202 201.094,138.197 201.295 M141.828 205.008 C 142.041 205.094,142.215 205.353,142.215 205.585 C 142.215 205.816,142.335 206.079,142.480 206.169 C 142.626 206.259,142.680 205.989,142.599 205.568 C 142.512 205.111,142.249 204.812,141.947 204.827 C 141.626 204.842,141.582 204.908,141.828 205.008 M175.541 253.886 C 176.190 254.361,176.484 254.309,176.155 253.777 C 176.043 253.596,175.723 253.447,175.445 253.447 C 175.022 253.447,175.038 253.519,175.541 253.886 " stroke="none" fill="#243c4c" fill-rule="evenodd"></path><path id="path3" d="" stroke="none" fill="#2c3c4c" fill-rule="evenodd"></path><path id="path4" d="" stroke="none" fill="#704ca4" fill-rule="evenodd"></path></g></svg>