<?xml version='1.0' encoding='iso-8859-1'?>
<svg version="1.1" xmlns="http://www.w3.org/2000/svg" viewBox="0 0 255.5 255.5" xmlns:xlink="http://www.w3.org/1999/xlink" enable-background="new 0 0 255.5 255.5">
  <g>
    <path d="m214.75,206.5h-13.333v-75.512c0-40.862-33.14-73.988-73.999-73.988-40.863,0-74.001,33.126-74.001,73.988v75.512h-12.667c-6.627,0-12.333,4.873-12.333,11.5v25c0,6.627 5.706,12.5 12.333,12.5h174c6.628,0 11.667-5.873 11.667-12.5v-25c0-6.627-5.039-11.5-11.667-11.5zm-137.333-75.012c0-27.563 23-49.988 50-49.988v125h-50v-75.012z"/>
    <path d="m127.417,41c4.418,0 8-3.582 8-8v-25c0-4.418-3.582-8-8-8-4.418,0-8,3.582-8,8v25c0,4.418 3.582,8 8,8z"/>
    <path d="m46.844,69.187c1.563,1.562 3.609,2.343 5.657,2.343 2.048,0 4.095-0.781 5.657-2.343 3.124-3.125 3.124-8.189 0-11.314l-17.678-17.679c-3.125-3.123-8.189-3.123-11.314,0-3.124,3.125-3.124,8.189 0,11.314l17.678,17.679z"/>
    <path d="m202.999,71.529c2.048,0 4.095-0.781 5.657-2.343l17.678-17.678c3.124-3.125 3.124-8.189 0-11.314-3.125-3.123-8.19-3.123-11.315,0l-17.678,17.678c-3.124,3.125-3.124,8.189 0,11.314 1.563,1.562 3.61,2.343 5.658,2.343z"/>
  </g>
</svg>
